<svg width="55" height="56" viewBox="0 0 55 56" fill="none" xmlns="http://www.w3.org/2000/svg">
<g clip-path="url(#clip0_102_4356)">
<path d="M16.0417 14.2502V7.37516C16.0417 6.76737 16.2831 6.18448 16.7129 5.75471C17.1427 5.32494 17.7255 5.0835 18.3333 5.0835H45.8333C46.4411 5.0835 47.024 5.32494 47.4538 5.75471C47.8836 6.18448 48.125 6.76737 48.125 7.37516V39.4585C48.125 40.0663 47.8836 40.6492 47.4538 41.079C47.024 41.5087 46.4411 41.7502 45.8333 41.7502H38.9583V48.6252C38.9583 49.8902 37.9271 50.9168 36.6506 50.9168H9.18271C8.8805 50.9186 8.58091 50.8607 8.30116 50.7464C8.0214 50.6321 7.76699 50.4636 7.55255 50.2506C7.33811 50.0377 7.16786 49.7845 7.05158 49.5055C6.93531 49.2266 6.8753 48.9274 6.875 48.6252L6.88188 16.5418C6.88188 15.2768 7.91313 14.2502 9.18958 14.2502H16.0417ZM11.4652 18.8335L11.4583 46.3335H34.375V18.8335H11.4652ZM20.625 14.2502H38.9583V37.1668H43.5417V9.66683H20.625V14.2502Z" fill="#252B3B"/>
</g>
<defs>
<clipPath id="clip0_102_4356">
<rect width="55" height="55" fill="white" transform="translate(0 0.5)"/>
</clipPath>
</defs>
</svg>
