<svg width="639" height="759" viewBox="0 0 639 759" fill="none" xmlns="http://www.w3.org/2000/svg">
<path fill-rule="evenodd" clip-rule="evenodd" d="M393.925 203.541C436.353 224.09 422.445 291.386 447.43 331.365C474.117 374.067 534.363 394.138 543.935 443.577C553.818 494.618 531.736 550.13 497.336 589.114C464.013 626.876 411.155 637.706 362.202 649.523C318.711 660.02 274.086 664.62 230.765 653.457C188.933 642.678 148.2 622.145 122.167 587.672C97.684 555.253 98.8865 512.017 93.5353 471.743C88.7078 435.411 74.3139 395.871 92.4496 364.019C110.326 332.623 155.766 333.089 184.757 311.53C212.887 290.61 227.897 256.208 259.047 240.126C301.297 218.314 351.135 182.817 393.925 203.541Z" fill="#FE5A81"/>
<path d="M314.945 433.082C439.155 433.082 539.848 427.203 539.848 419.951C539.848 412.699 439.155 406.82 314.945 406.82C190.734 406.82 90.042 412.699 90.042 419.951C90.042 427.203 190.734 433.082 314.945 433.082Z" fill="#95C2BC"/>
<path d="M411.65 269.471H143.075V273.774H411.65V269.471Z" fill="#95C2BC"/>
<path d="M411.65 273.774H469.926V269.471H411.65V273.774Z" fill="#95C2BC"/>
<path opacity="0.2" d="M411.65 273.774H469.926V269.471H411.65V273.774Z" fill="black"/>
<path d="M450.462 278.379H162.539L152.911 273.774H460.089L450.462 278.379Z" fill="#95C2BC"/>
<path opacity="0.6" d="M450.462 278.379H162.539L152.911 273.774H460.089L450.462 278.379Z" fill="white"/>
<path d="M171.238 278.379V415.648H174.927L179.567 278.379H171.238Z" fill="#95C2BC"/>
<path d="M214.783 278.379V415.648H218.471L223.111 278.379H214.783Z" fill="#95C2BC"/>
<path d="M450.462 278.379V415.648H446.785L442.133 278.379H450.462Z" fill="#95C2BC"/>
<path d="M406.929 278.379V415.648H403.24L398.6 278.379H406.929Z" fill="#95C2BC"/>
<path d="M319.283 217.366L307.162 266.745L306.825 269.471H390.434L390.782 266.745L402.892 217.366H319.283Z" fill="#95C2BC"/>
<path opacity="0.3" d="M319.283 217.366L307.162 266.745L306.825 269.471H390.434L390.782 266.745L402.892 217.366H319.283Z" fill="black"/>
<path d="M400.329 217.366H316.708L304.598 266.745H388.207L400.329 217.366Z" fill="#95C2BC"/>
<path d="M386.432 264.483L397.452 219.628H318.483L307.475 264.483H386.432Z" fill="white"/>
<path d="M366.424 266.745L366.076 269.471H274.01L274.347 266.745H366.424Z" fill="#95C2BC"/>
<path opacity="0.6" d="M366.424 266.745L366.076 269.471H274.01L274.347 266.745H366.424Z" fill="white"/>
<path d="M192.5 260.493C192.442 258.726 191.75 257.039 190.551 255.74C189.352 254.441 187.726 253.617 185.97 253.417V252.083C185.968 252.006 185.951 251.93 185.92 251.859C185.889 251.789 185.844 251.725 185.787 251.672C185.731 251.619 185.665 251.578 185.593 251.551C185.52 251.524 185.443 251.512 185.366 251.515H172.839C172.761 251.512 172.684 251.524 172.611 251.551C172.538 251.578 172.471 251.619 172.414 251.671C172.357 251.724 172.31 251.788 172.278 251.858C172.245 251.929 172.227 252.005 172.224 252.083V269.482H185.97V267.58C187.729 267.383 189.358 266.557 190.558 265.255C191.757 263.953 192.447 262.262 192.5 260.493ZM185.97 265.33V255.667C187.129 255.838 188.188 256.42 188.954 257.307C189.719 258.194 190.141 259.327 190.141 260.499C190.141 261.67 189.719 262.803 188.954 263.69C188.188 264.577 187.129 265.159 185.97 265.33Z" fill="#688883"/>
<path d="M426.949 269.471H438.595L435.15 243.963H426.949V269.471Z" fill="#263238"/>
<path d="M409.875 269.471H431.937L436.032 239.614H413.981L409.875 269.471Z" fill="#95C2BC"/>
<path opacity="0.3" d="M409.875 269.471H431.937L436.032 239.614H413.981L409.875 269.471Z" fill="black"/>
<path d="M406.929 269.471H429.884L433.99 239.614H411.035L406.929 269.471Z" fill="#95C2BC"/>
<path opacity="0.4" d="M427.854 267.116L431.311 241.968H413.065L409.608 267.116H427.854Z" fill="white"/>
<path d="M254.094 225.392L253.143 226.413L252.122 227.573C251.438 228.362 250.753 229.162 250.104 229.986C248.805 231.633 247.552 233.315 246.38 235.043C244.049 238.386 242.104 241.981 240.58 245.761C239.871 247.558 239.32 249.413 238.933 251.306C238.748 252.373 238.632 252.837 238.574 253.289C238.51 253.65 238.51 254.019 238.574 254.38C238.768 254.947 239.073 255.469 239.472 255.917C239.87 256.365 240.353 256.73 240.894 256.989C241.677 257.472 242.499 257.887 243.353 258.231C243.801 258.416 244.265 258.59 244.745 258.753C245.185 258.915 245.742 259.077 246.09 259.217V265.608C245.278 265.724 244.687 265.817 244.002 265.863C243.318 265.909 242.657 265.921 241.972 265.863C240.565 265.835 239.165 265.656 237.797 265.33C236.254 264.967 234.776 264.373 233.412 263.566C231.808 262.628 230.43 261.349 229.375 259.82C228.289 258.192 227.569 256.348 227.264 254.414C227.187 253.962 227.136 253.504 227.113 253.046C227.09 252.605 227.09 252.164 227.113 251.723V251.074C227.1 250.9 227.1 250.725 227.113 250.552L227.206 249.531C227.503 246.88 228.062 244.265 228.877 241.725C230.447 236.845 232.659 232.195 235.453 227.898C236.796 225.788 238.256 223.755 239.826 221.808C240.604 220.834 241.404 219.883 242.239 218.943C242.645 218.467 243.074 218.004 243.515 217.54C243.956 217.076 244.362 216.67 244.965 216.09L254.094 225.392Z" fill="#B55B52"/>
<path d="M243.781 259.077L249.187 255.11L252.261 266.223C252.261 266.223 247.47 267.997 243.816 265.608L243.781 259.077Z" fill="#B55B52"/>
<path d="M256.692 252.442L258.803 261.745L252.261 266.223L249.187 255.11L256.692 252.442Z" fill="#B55B52"/>
<path d="M290.875 182.753C290.632 183.437 290.806 184.121 291.258 184.272C291.711 184.423 292.267 184.005 292.499 183.321C292.731 182.637 292.569 181.941 292.128 181.79C291.687 181.639 291.119 182.057 290.875 182.753Z" fill="#263238"/>
<path d="M290.748 184.098C290.838 186.487 291.256 188.852 291.989 191.127C291.405 191.295 290.791 191.334 290.191 191.242C289.59 191.15 289.016 190.929 288.509 190.594L290.748 184.098Z" fill="#A02724"/>
<path d="M289.762 178.09C289.848 178.119 289.942 178.119 290.029 178.09C290.538 177.92 291.08 177.873 291.61 177.954C292.14 178.035 292.644 178.24 293.079 178.554C293.167 178.617 293.275 178.645 293.382 178.632C293.489 178.62 293.587 178.567 293.657 178.485C293.727 178.404 293.764 178.298 293.76 178.191C293.756 178.083 293.712 177.981 293.636 177.904C293.092 177.498 292.458 177.229 291.788 177.118C291.118 177.007 290.431 177.057 289.785 177.266C289.7 177.295 289.627 177.35 289.575 177.422C289.523 177.495 289.495 177.582 289.495 177.672C289.495 177.761 289.523 177.849 289.575 177.921C289.627 177.994 289.7 178.049 289.785 178.078L289.762 178.09Z" fill="#263238"/>
<path d="M265.438 185.281C266.737 191.881 268.025 203.98 263.408 208.388C263.408 208.388 265.218 215.081 277.49 215.081C290.98 215.081 283.939 208.388 283.939 208.388C276.574 206.624 276.759 201.161 278.047 196.034L265.438 185.281Z" fill="#B55B52"/>
<path d="M261.644 210.684C260.67 208.562 259.615 206.137 261.807 205.383C264.231 204.548 277.501 203.69 282.071 205.256C282.675 205.42 283.241 205.704 283.734 206.089C284.228 206.475 284.639 206.955 284.945 207.501C285.251 208.048 285.444 208.65 285.514 209.272C285.585 209.894 285.53 210.524 285.354 211.125L261.644 210.684Z" fill="#263238"/>
<path d="M307.985 222.005C310.827 227.121 313.878 232.387 316.963 237.444C320.049 242.502 323.285 247.536 326.742 252.129C327.6 253.289 328.493 254.391 329.375 255.493C329.815 256.062 330.279 256.525 330.732 257.047L331.404 257.813L331.578 258.01L331.66 258.103L331.741 258.207C332.281 258.73 332.931 259.126 333.643 259.367C334.74 259.749 335.87 260.025 337.019 260.191C342.657 260.76 348.342 260.694 353.966 259.994L355.729 266.142C354.163 266.837 352.701 267.301 351.147 267.881C349.593 268.461 348.061 268.844 346.507 269.239C343.212 270.065 339.835 270.516 336.439 270.584C334.532 270.615 332.629 270.424 330.767 270.016C328.48 269.562 326.324 268.603 324.456 267.209L323.679 266.571L323.494 266.408L323.378 266.292L323.157 266.072L322.252 265.179C321.661 264.587 321.011 264.019 320.478 263.392C319.318 262.174 318.227 260.957 317.218 259.704C313.166 254.806 309.427 249.658 306.025 244.288C304.331 241.643 302.7 238.972 301.13 236.273C299.552 233.547 298.033 230.879 296.56 228.002L307.985 222.005Z" fill="#B55B52"/>
<path d="M247.25 210.429C238.782 212.366 229.085 235.438 229.085 235.438L246.078 247.037C250.305 240.976 254.055 234.597 257.295 227.956C262.318 217.447 255.903 208.446 247.25 210.429Z" fill="#95C2BC"/>
<path opacity="0.2" d="M253.305 225.137L245.278 246.527L246.067 247.083C246.067 247.083 249.546 242.2 253.305 235.611V225.137Z" fill="#252B3B"/>
<path d="M297.824 210.881C297.824 210.881 307.428 221.738 298.357 288.9H250.069C249.744 281.488 254.395 245.343 247.25 210.417C252.586 209.39 257.984 208.708 263.408 208.376C270.246 207.975 277.101 207.975 283.939 208.376C288.626 208.848 293.268 209.685 297.824 210.881Z" fill="#95C2BC"/>
<path opacity="0.2" d="M292.453 230.311C293.713 237.933 297.007 245.075 301.988 250.981C302.185 246.654 302.266 242.768 302.255 239.3L292.453 230.311Z" fill="#252B3B"/>
<path d="M288.266 218.212C287.106 226.761 303.925 248.592 303.925 248.592L320.849 236.992C320.849 236.992 316.151 224.963 308.252 217.076C299.251 208.028 289.588 208.91 288.266 218.212Z" fill="#95C2BC"/>
<path d="M352.063 260.052L358.953 257.221L366.04 262.58C366.04 262.58 359.278 268.566 353.13 266.234L352.063 260.052Z" fill="#B55B52"/>
<path d="M363.5 256.943L368.697 260.655L366.006 262.58L358.918 257.221L363.5 256.943Z" fill="#B55B52"/>
<path d="M268.442 173.311C266.03 181.941 264.174 186.87 266.934 192.682C271.075 201.439 282.849 201.196 287.814 193.471C292.268 186.511 295.469 173.566 288.37 167.337C286.812 165.952 284.925 164.989 282.89 164.54C280.854 164.09 278.737 164.168 276.74 164.766C274.744 165.365 272.933 166.464 271.481 167.96C270.028 169.455 268.982 171.297 268.442 173.311Z" fill="#B55B52"/>
<path d="M286.816 173.403C283.336 183.309 279.241 194.19 269.243 192.125C262.793 190.791 262.283 180.41 259.963 175.689C257.91 171.548 258.037 163.219 262.283 163.115C260.381 160.354 269.997 150.251 276.562 155.587C278.244 153.267 290.365 146.435 299.343 157.28C307.799 167.534 303.658 176.083 286.816 173.403Z" fill="#263238"/>
<path d="M278.986 179.737C278.754 181.95 279.251 184.178 280.401 186.082C281.944 188.564 284.206 187.613 285.041 185.073C285.783 182.753 285.865 178.751 283.719 177.139C281.573 175.526 279.311 177.069 278.986 179.737Z" fill="#B55B52"/>
<path d="M353.084 409.094C354.244 409.094 355.404 408.932 355.74 408.41C355.836 408.272 355.887 408.108 355.887 407.94C355.887 407.772 355.836 407.608 355.74 407.47C355.586 407.226 355.346 407.048 355.067 406.971C353.559 406.565 350.428 408.363 350.277 408.444C350.237 408.464 350.205 408.497 350.186 408.536C350.168 408.576 350.163 408.622 350.172 408.665C350.18 408.706 350.199 408.745 350.228 408.776C350.257 408.806 350.294 408.828 350.335 408.839C351.242 409.004 352.162 409.089 353.084 409.094ZM354.522 407.342C354.657 407.323 354.794 407.323 354.928 407.342C355.016 407.359 355.099 407.394 355.171 407.446C355.243 407.499 355.303 407.566 355.346 407.644C355.497 407.911 355.45 408.038 355.346 408.108C354.928 408.7 352.643 408.711 350.961 408.468C352.064 407.865 353.273 407.483 354.522 407.342Z" fill="#95C2BC"/>
<path d="M350.358 408.839H350.451C351.541 408.352 353.699 406.403 353.525 405.359C353.525 405.115 353.316 404.825 352.736 404.756C352.528 404.738 352.318 404.761 352.119 404.825C351.919 404.889 351.735 404.991 351.576 405.127C350.416 406.066 350.184 408.502 350.172 408.607C350.168 408.644 350.173 408.681 350.187 408.716C350.202 408.75 350.224 408.781 350.254 408.804C350.286 408.823 350.321 408.834 350.358 408.839ZM352.562 405.185H352.689C353.072 405.185 353.095 405.382 353.107 405.428C353.211 406.043 351.738 407.574 350.625 408.236C350.717 407.214 351.122 406.246 351.785 405.463C352.001 405.278 352.277 405.179 352.562 405.185Z" fill="#95C2BC"/>
<path d="M339.86 408.63H348.885L350.938 387.716H341.913L339.86 408.63Z" fill="#B55B52"/>
<path d="M349.395 407.586H339.547C339.366 407.587 339.19 407.649 339.049 407.763C338.908 407.877 338.81 408.035 338.77 408.212L336.984 416.193C336.938 416.387 336.937 416.589 336.981 416.784C337.025 416.979 337.113 417.161 337.239 417.317C337.364 417.472 337.523 417.597 337.704 417.682C337.885 417.766 338.083 417.809 338.283 417.805C341.833 417.747 346.971 417.538 351.437 417.538C356.668 417.538 361.181 417.817 367.305 417.817C371.017 417.817 372.049 414.07 370.495 413.734C363.431 412.191 357.666 412.028 351.565 408.259C350.917 407.839 350.167 407.606 349.395 407.586Z" fill="#263238"/>
<path opacity="0.2" d="M350.926 387.728L349.882 398.504H340.846L341.902 387.728H350.926Z" fill="#252B3B"/>
<path d="M316.905 409.082C317.288 409.132 317.676 409.106 318.049 409.004C318.421 408.903 318.77 408.728 319.074 408.491C319.181 408.344 319.238 408.167 319.238 407.986C319.238 407.805 319.181 407.628 319.074 407.482C319.005 407.354 318.91 407.243 318.793 407.157C318.677 407.071 318.543 407.011 318.401 406.983C317.079 406.67 314.585 408.375 314.481 408.444C314.448 408.47 314.422 408.504 314.405 408.542C314.389 408.581 314.383 408.623 314.388 408.665C314.396 408.705 314.416 408.741 314.445 408.77C314.474 408.799 314.51 408.819 314.55 408.827C315.324 408.996 316.113 409.081 316.905 409.082ZM318.065 407.366C318.15 407.354 318.235 407.354 318.32 407.366C318.403 407.378 318.482 407.409 318.551 407.458C318.619 407.506 318.675 407.57 318.714 407.644C318.912 408.004 318.796 408.143 318.714 408.201C318.332 408.7 316.487 408.711 315.13 408.491C316.003 407.9 316.999 407.515 318.042 407.366H318.065Z" fill="#95C2BC"/>
<path d="M314.608 408.839H314.701C315.64 408.328 317.45 406.356 317.253 405.359C317.223 405.199 317.138 405.055 317.013 404.951C316.888 404.847 316.731 404.79 316.568 404.79C316.407 404.771 316.242 404.785 316.086 404.833C315.93 404.881 315.786 404.961 315.664 405.069C314.62 405.927 314.399 408.549 314.388 408.641C314.387 408.68 314.396 408.719 314.415 408.753C314.433 408.788 314.46 408.817 314.492 408.839C314.53 408.85 314.57 408.85 314.608 408.839ZM316.429 405.185H316.522C316.8 405.185 316.824 405.347 316.835 405.405C316.951 405.997 315.791 407.493 314.863 408.201C314.926 407.171 315.298 406.185 315.93 405.37C316.069 405.251 316.246 405.185 316.429 405.185Z" fill="#95C2BC"/>
<path d="M304.262 408.63H313.286L317.822 387.716H308.797L304.262 408.63Z" fill="#B55B52"/>
<path d="M313.924 407.586H303.786C303.606 407.587 303.432 407.65 303.293 407.764C303.153 407.878 303.057 408.036 303.02 408.212L301.234 416.193C301.192 416.388 301.195 416.591 301.242 416.786C301.29 416.981 301.38 417.162 301.507 417.317C301.634 417.472 301.794 417.596 301.976 417.681C302.158 417.765 302.356 417.808 302.556 417.805C306.094 417.747 307.823 417.538 312.277 417.538C315.026 417.538 318.54 417.817 322.333 417.817C326.127 417.817 326.614 414.07 325.059 413.733C318.1 412.214 317.624 410.114 315.397 408.108C314.986 407.76 314.462 407.574 313.924 407.586Z" fill="#263238"/>
<g opacity="0.2">
<path d="M308.797 387.728H317.822L315.479 398.504H306.454L308.797 387.728Z" fill="#252B3B"/>
</g>
<path d="M298.357 288.911C298.357 288.911 365.982 296.068 365.24 330.565C364.761 352.23 360.595 373.655 352.921 393.922H339.512C339.512 393.922 340.197 372.033 339.744 336.713C339.605 326.123 318.227 322.631 297.337 321.401C288.49 320.845 279.975 317.828 272.752 312.689C265.529 307.551 259.886 300.496 256.46 292.322L255.033 288.911H298.357Z" fill="#263238"/>
<path d="M356.204 390.326C356.273 390.326 355.334 396.671 355.334 396.671H336.775L336.264 391.01L356.204 390.326Z" fill="#95C2BC"/>
<path d="M283.881 288.911C283.881 288.911 332.901 305.151 334.142 325.287C336.462 362.336 318.239 393.922 318.239 393.922H304.702C304.702 393.922 309.841 378.262 311.662 344.693C313.982 302.529 235.302 344.624 250.045 288.911H283.881Z" fill="#263238"/>
<path d="M322.333 390.326C322.403 390.326 320.628 396.671 320.628 396.671H302.069L302.405 391.01L322.333 390.326Z" fill="#95C2BC"/>
<path d="M319.236 324.429H243.839C243.839 322.146 244.746 319.957 246.36 318.343C247.974 316.729 250.164 315.822 252.446 315.822H310.629C312.912 315.822 315.101 316.729 316.715 318.343C318.329 319.957 319.236 322.146 319.236 324.429Z" fill="#95C2BC"/>
<path d="M247.331 324.417L235.964 419.719H238.4L252.818 324.417H247.331Z" fill="#95C2BC"/>
<path opacity="0.4" d="M247.331 324.417L235.964 419.719H238.4L252.818 324.417H247.331Z" fill="#252B3B"/>
<path d="M262.538 324.417L262.317 419.719H264.742L268.024 324.417H262.538Z" fill="#95C2BC"/>
<path opacity="0.4" d="M262.538 324.417L262.317 419.719H264.742L268.024 324.417H262.538Z" fill="#252B3B"/>
<path d="M315.745 324.417L327.112 419.719H324.677L310.27 324.417H315.745Z" fill="#95C2BC"/>
<path opacity="0.4" d="M315.745 324.417L327.112 419.719H324.677L310.27 324.417H315.745Z" fill="#252B3B"/>
<path d="M300.538 324.417L300.758 419.719H298.334L295.051 324.417H300.538Z" fill="#95C2BC"/>
<path opacity="0.4" d="M300.538 324.417L300.758 419.719H298.334L295.051 324.417H300.538Z" fill="#252B3B"/>
</svg>
