<svg width="15" height="16" viewBox="0 0 15 16" fill="none" xmlns="http://www.w3.org/2000/svg">
<path d="M7.5 2.07324C9.19812 2.07324 9.41 2.07949 10.0763 2.11074C10.7419 2.14199 11.195 2.24637 11.5938 2.40137C12.0062 2.56012 12.3538 2.77512 12.7013 3.12199C13.0191 3.43443 13.265 3.81236 13.4219 4.22949C13.5763 4.62762 13.6813 5.08137 13.7125 5.74699C13.7419 6.41324 13.75 6.62512 13.75 8.32324C13.75 10.0214 13.7438 10.2332 13.7125 10.8995C13.6813 11.5651 13.5763 12.0182 13.4219 12.417C13.2654 12.8344 13.0195 13.2124 12.7013 13.5245C12.3887 13.8422 12.0108 14.0881 11.5938 14.2451C11.1956 14.3995 10.7419 14.5045 10.0763 14.5357C9.41 14.5651 9.19812 14.5732 7.5 14.5732C5.80188 14.5732 5.59 14.567 4.92375 14.5357C4.25812 14.5045 3.805 14.3995 3.40625 14.2451C2.98895 14.0885 2.61095 13.8426 2.29875 13.5245C1.98088 13.2121 1.73496 12.8342 1.57813 12.417C1.42313 12.0189 1.31875 11.5651 1.2875 10.8995C1.25812 10.2332 1.25 10.0214 1.25 8.32324C1.25 6.62512 1.25625 6.41324 1.2875 5.74699C1.31875 5.08074 1.42313 4.62824 1.57813 4.22949C1.73452 3.8121 1.9805 3.43407 2.29875 3.12199C2.61104 2.80401 2.98902 2.55807 3.40625 2.40137C3.805 2.24637 4.2575 2.14199 4.92375 2.11074C5.59 2.08137 5.80188 2.07324 7.5 2.07324ZM7.5 5.19824C6.6712 5.19824 5.87634 5.52748 5.29029 6.11353C4.70424 6.69958 4.375 7.49444 4.375 8.32324C4.375 9.15204 4.70424 9.9469 5.29029 10.533C5.87634 11.119 6.6712 11.4482 7.5 11.4482C8.3288 11.4482 9.12366 11.119 9.70971 10.533C10.2958 9.9469 10.625 9.15204 10.625 8.32324C10.625 7.49444 10.2958 6.69958 9.70971 6.11353C9.12366 5.52748 8.3288 5.19824 7.5 5.19824ZM11.5625 5.04199C11.5625 4.83479 11.4802 4.63608 11.3337 4.48956C11.1872 4.34305 10.9885 4.26074 10.7812 4.26074C10.574 4.26074 10.3753 4.34305 10.2288 4.48956C10.0823 4.63608 10 4.83479 10 5.04199C10 5.24919 10.0823 5.44791 10.2288 5.59442C10.3753 5.74093 10.574 5.82324 10.7812 5.82324C10.9885 5.82324 11.1872 5.74093 11.3337 5.59442C11.4802 5.44791 11.5625 5.24919 11.5625 5.04199ZM7.5 6.44824C7.99728 6.44824 8.47419 6.64579 8.82583 6.99742C9.17746 7.34905 9.375 7.82596 9.375 8.32324C9.375 8.82052 9.17746 9.29744 8.82583 9.64907C8.47419 10.0007 7.99728 10.1982 7.5 10.1982C7.00272 10.1982 6.52581 10.0007 6.17417 9.64907C5.82254 9.29744 5.625 8.82052 5.625 8.32324C5.625 7.82596 5.82254 7.34905 6.17417 6.99742C6.52581 6.64579 7.00272 6.44824 7.5 6.44824Z" fill="white"/>
</svg>
