<svg width="697" height="702" viewBox="0 0 697 702" fill="none" xmlns="http://www.w3.org/2000/svg">
<path fill-rule="evenodd" clip-rule="evenodd" d="M438.439 103.631C483.185 127.586 465.291 199.374 490.426 243.47C517.272 290.57 581.207 314.787 589.35 368.388C597.756 423.727 571.582 482.482 532.877 522.919C495.384 562.09 438.05 571.436 384.873 582.014C337.63 591.411 289.425 594.414 243.308 580.517C198.777 567.098 155.854 543.234 129.351 505.015C104.426 469.073 107.605 422.614 103.604 379.056C99.9942 339.761 86.2333 296.599 107.131 263.125C127.73 230.129 176.593 232.611 208.719 210.682C239.892 189.404 257.539 153.051 291.749 137.108C338.15 115.485 393.311 79.4717 438.439 103.631Z" fill="#FE5A81"/>
<path d="M483.918 220.899C477.271 217.266 474.256 220.292 471.838 217.266C469.42 214.241 478.485 206.39 460.323 198.539C460.323 198.539 459.119 181.623 434.341 181.015C409.563 180.408 416.242 197.932 409.594 202.161C402.947 206.39 401.136 199.785 394.489 203.972C387.842 208.159 390.867 216.659 385.434 217.863C380.001 219.067 372.736 212.43 366.089 216.659C359.442 220.888 359.442 224.51 356.427 224.51C353.412 224.51 347.361 222.092 343.739 224.51C340.118 226.929 335.878 229.954 335.878 229.954H488.712C488.712 229.954 490.565 224.521 483.918 220.899Z" fill="#95C2BC"/>
<path opacity="0.5" d="M483.918 220.899C477.271 217.266 474.256 220.292 471.838 217.266C469.42 214.241 478.485 206.39 460.323 198.539C460.323 198.539 459.119 181.623 434.341 181.015C409.563 180.408 416.242 197.932 409.594 202.161C402.947 206.39 401.136 199.785 394.489 203.972C387.842 208.159 390.867 216.659 385.434 217.863C380.001 219.067 372.736 212.43 366.089 216.659C359.442 220.888 359.442 224.51 356.427 224.51C353.412 224.51 347.361 222.092 343.739 224.51C340.118 226.929 335.878 229.954 335.878 229.954H488.712C488.712 229.954 490.565 224.521 483.918 220.899Z" fill="white"/>
<path d="M310.598 356.702C305.929 354.158 303.804 356.273 302.108 354.158C300.412 352.044 306.777 346.516 294.048 341C294.048 341 293.2 329.118 275.791 328.689C258.383 328.26 263.062 340.57 258.393 343.543C253.725 346.516 252.458 341.848 247.789 344.821C243.12 347.793 245.235 353.729 241.425 354.577C237.614 355.425 232.506 350.756 227.816 353.729C223.126 356.702 223.147 359.246 221.033 359.246C218.918 359.246 214.658 357.55 212.114 359.246C209.57 360.941 206.597 363.066 206.597 363.066H313.989C313.989 363.066 315.267 359.246 310.598 356.702Z" fill="white"/>
<path opacity="0.5" d="M310.598 356.702C305.929 354.158 303.804 356.273 302.108 354.158C300.412 352.044 306.777 346.516 294.048 341C294.048 341 293.2 329.118 275.791 328.689C258.383 328.26 263.062 340.57 258.393 343.543C253.725 346.516 252.458 341.848 247.789 344.821C243.12 347.793 245.235 353.729 241.425 354.577C237.614 355.425 232.506 350.756 227.816 353.729C223.126 356.702 223.147 359.246 221.033 359.246C218.918 359.246 214.658 357.55 212.114 359.246C209.57 360.941 206.597 363.066 206.597 363.066H313.989C313.989 363.066 315.267 359.246 310.598 356.702Z" fill="white"/>
<path d="M443.322 533.581H509.48C508.214 525.49 503.011 526.913 502.32 514.372C501.975 508.092 507.826 500.24 507.314 491.95C506.895 485.114 500.164 478.111 499.64 470.291C499.169 463.236 504.874 455.406 504.362 447.806C503.828 440.625 497.034 433.726 496.395 426.252C495.809 418.924 501.441 411.063 500.771 403.693C500.101 396.324 493.161 389.551 492.397 382.286C491.632 374.822 497.086 366.783 496.249 359.643C495.369 352.054 488.209 345.501 487.236 338.508C486.189 330.73 491.224 322.419 490.041 315.698C488.586 307.47 480.923 301.514 479.311 295.443C476.307 284.126 476.684 273.229 473.135 272.517C469.356 271.764 468.487 282.452 465.619 294.396C464.175 300.394 456.69 306.476 455.455 314.714C454.46 321.382 459.757 329.495 458.888 337.242C458.113 344.182 451.131 350.85 450.451 358.398C449.812 365.495 455.476 373.315 454.921 380.737C454.376 387.949 447.593 394.827 447.143 402.154C446.693 409.482 452.513 417.145 452.115 424.378C451.707 431.79 445.06 438.793 444.714 445.922C444.358 453.469 450.315 461.079 450.022 468.072C449.697 475.829 443.144 482.926 442.903 489.71C442.61 497.938 448.65 505.527 448.462 511.797C448.064 525.406 441.836 522.569 441.616 533.519L443.322 533.581Z" fill="#95C2BC"/>
<path d="M471.722 294.26V530.525" stroke="#252B3B" stroke-miterlimit="10"/>
<path d="M482.054 319.027L471.282 328.333L462.468 316.577" stroke="#252B3B" stroke-miterlimit="10"/>
<path d="M482.054 360.156L471.282 369.452L462.468 357.707" stroke="#252B3B" stroke-miterlimit="10"/>
<path d="M482.054 398.825L471.282 408.131L462.468 396.375" stroke="#252B3B" stroke-miterlimit="10"/>
<path d="M482.054 444.853L471.282 454.149L462.468 442.404" stroke="#252B3B" stroke-miterlimit="10"/>
<path d="M482.054 491.363L471.282 500.659L462.468 488.914" stroke="#252B3B" stroke-miterlimit="10"/>
<path d="M398.257 533.581H449.331C448.347 527.3 444.338 528.431 443.804 518.758C443.532 513.88 448.044 507.85 447.656 501.444C447.332 496.21 442.14 490.756 441.731 484.695C441.365 479.251 445.803 473.18 445.374 467.339C444.966 461.791 439.701 456.473 439.229 450.705C438.758 444.937 443.124 438.97 442.611 433.286C442.098 427.602 436.728 422.368 436.162 416.767C435.576 410.999 439.784 404.802 439.135 399.275C438.455 393.423 432.928 388.367 432.184 382.976C431.347 376.968 435.262 370.551 434.341 365.369C433.221 359.015 427.306 354.409 426.071 349.73C423.747 340.999 424.04 332.572 421.298 332.028C418.377 331.442 417.707 339.691 415.498 348.924C414.389 353.55 408.6 358.251 407.647 364.626C406.883 369.776 410.966 376.036 410.296 382.013C409.699 387.373 404.318 392.481 403.784 398.343C403.292 403.818 407.668 409.858 407.239 415.584C406.82 421.153 401.597 426.461 401.23 432.114C400.864 437.766 405.417 443.691 405.072 449.271C404.727 454.85 399.629 460.398 399.367 465.905C399.084 471.725 403.68 477.597 403.46 482.999C403.209 488.987 398.153 494.514 397.964 499.748C397.734 506.092 402.403 511.964 402.256 516.79C401.942 527.258 397.137 525.112 396.97 533.539L398.257 533.581Z" fill="#95C2BC"/>
<path d="M420.188 348.85V531.226" stroke="#252B3B" stroke-miterlimit="10"/>
<path d="M428.154 367.965L419.842 375.146L413.038 366.07" stroke="#252B3B" stroke-miterlimit="10"/>
<path d="M428.154 399.704L419.842 406.885L413.038 397.82" stroke="#252B3B" stroke-miterlimit="10"/>
<path d="M428.154 429.56L419.842 436.741L413.038 427.675" stroke="#252B3B" stroke-miterlimit="10"/>
<path d="M428.154 465.088L419.842 472.269L413.038 463.194" stroke="#252B3B" stroke-miterlimit="10"/>
<path d="M428.154 500.994L419.842 508.165L413.038 499.099" stroke="#252B3B" stroke-miterlimit="10"/>
<path d="M352.731 533.09V321.446H363.9V533.09" fill="#252B3B"/>
<path d="M352.731 533.09V321.446H363.9V533.09" stroke="#252B3B" stroke-linecap="round" stroke-linejoin="round"/>
<path d="M347.152 533.09V321.446H358.321V533.09" fill="#95C2BC"/>
<path d="M347.152 533.09V321.446H358.321V533.09" stroke="#252B3B" stroke-linecap="round" stroke-linejoin="round"/>
<g style="mix-blend-mode:multiply" opacity="0.3">
<path d="M358.321 321.446H347.152V346.569H358.321V321.446Z" fill="#252B3B"/>
</g>
<path d="M394.813 238.821H312.052L348.125 327.423H430.897V274.894C430.897 270.156 429.963 265.464 428.15 261.087C426.336 256.71 423.678 252.733 420.327 249.383C416.977 246.033 412.999 243.376 408.621 241.564C404.243 239.751 399.551 238.819 394.813 238.821Z" fill="#95C2BC" stroke="#252B3B" stroke-linecap="round" stroke-linejoin="round"/>
<g style="mix-blend-mode:multiply" opacity="0.3">
<path d="M341.813 311.909L348.094 327.422H430.897V274.893C430.897 274.098 430.897 273.302 430.813 272.517H341.834L341.813 311.909Z" fill="#252B3B"/>
</g>
<path d="M394.206 272.517H385.497" stroke="#252B3B" stroke-linecap="round" stroke-linejoin="round"/>
<path d="M430.813 272.517H404.455" stroke="#252B3B" stroke-linecap="round" stroke-linejoin="round"/>
<path d="M312.052 238.821C321.622 238.821 330.8 242.622 337.567 249.389C344.334 256.156 348.136 265.334 348.136 274.904V327.433H275.969V274.894C275.972 265.326 279.774 256.15 286.541 249.386C293.308 242.621 302.484 238.821 312.052 238.821Z" fill="#252B3B" stroke="#252B3B" stroke-linecap="round" stroke-linejoin="round"/>
<path d="M348.125 321.446H285.945V327.423H348.125V321.446Z" fill="#95C2BC" stroke="#252B3B" stroke-linecap="round" stroke-linejoin="round"/>
<path d="M348.125 321.446H219.441V327.423H348.125V321.446Z" fill="#95C2BC" stroke="#252B3B" stroke-linecap="round" stroke-linejoin="round"/>
<path opacity="0.3" d="M348.125 321.446H285.945V327.423H348.125V321.446Z" fill="#252B3B"/>
<path d="M400.194 217.466H374.369V235.607H400.194V217.466Z" fill="#252B3B" stroke="#252B3B" stroke-linecap="round" stroke-linejoin="round"/>
<path d="M376.462 217.466H370.883V273.993H376.462V217.466Z" fill="white" stroke="#252B3B" stroke-linecap="round" stroke-linejoin="round"/>
<path d="M373.668 281.666C377.136 281.666 379.948 278.854 379.948 275.386C379.948 271.917 377.136 269.105 373.668 269.105C370.199 269.105 367.387 271.917 367.387 275.386C367.387 278.854 370.199 281.666 373.668 281.666Z" fill="#252B3B" stroke="#252B3B" stroke-linecap="round" stroke-linejoin="round"/>
<path d="M281.559 253.329C296.13 260.73 321.463 272.591 344.828 278.557" stroke="white" stroke-linecap="round" stroke-linejoin="round" stroke-dasharray="2 4"/>
<path d="M269.332 246.891C269.332 246.891 274.001 249.529 281.559 253.371" stroke="#252B3B" stroke-linecap="round" stroke-linejoin="round" stroke-dasharray="2 4"/>
<path d="M264.088 246.504L274.567 221.611L198.579 203.072L264.088 246.504Z" fill="white" stroke="#252B3B" stroke-width="1.2629" stroke-linecap="round" stroke-linejoin="round"/>
<path d="M269.196 224.625L264.088 246.504L198.579 203.072L269.196 224.625Z" fill="#95C2BC" stroke="#252B3B" stroke-width="1.2629" stroke-linecap="round" stroke-linejoin="round"/>
<path d="M269.196 224.625L257.273 234.842L198.579 203.072L269.196 224.625Z" fill="white" stroke="#252B3B" stroke-width="1.2629" stroke-linecap="round" stroke-linejoin="round"/>
<path d="M274.567 221.611L285.181 217.298L198.579 203.072L274.567 221.611Z" fill="white" stroke="#252B3B" stroke-width="1.2629" stroke-linecap="round" stroke-linejoin="round"/>
<path d="M249.328 242.631L251.788 244.139" stroke="#252B3B" stroke-linecap="round" stroke-linejoin="round"/>
<path d="M235.907 234.403L244.146 239.449" stroke="#252B3B" stroke-linecap="round" stroke-linejoin="round"/>
<path d="M226.654 294.155V267.157L303.887 279.573L226.654 294.155Z" fill="white" stroke="#252B3B" stroke-width="1.2629" stroke-linecap="round" stroke-linejoin="round"/>
<path d="M230.433 272.014L226.654 294.154L303.887 279.572L230.433 272.014Z" fill="#95C2BC" stroke="#252B3B" stroke-width="1.2629" stroke-linecap="round" stroke-linejoin="round"/>
<path d="M230.433 272.014L237.457 286.052L303.887 279.572L230.433 272.014Z" fill="white" stroke="#252B3B" stroke-width="1.2629" stroke-linecap="round" stroke-linejoin="round"/>
<path d="M226.654 267.157L218.552 259.055L303.888 279.572L226.654 267.157Z" fill="white" stroke="#252B3B" stroke-width="1.2629" stroke-linecap="round" stroke-linejoin="round"/>
<path d="M254.31 293.652L261.01 292.291" stroke="#252B3B" stroke-linecap="round" stroke-linejoin="round"/>
<path d="M230.778 298.436L247.621 295.013" stroke="#252B3B" stroke-linecap="round" stroke-linejoin="round"/>
<path d="M217.347 292.49C217.347 292.49 156.632 302.958 145.117 357.392C133.603 411.827 194.318 414.967 204.786 388.797C215.254 362.627 169.194 352.158 158.726 377.282C148.258 402.405 179.662 445.325 222.581 447.418C258.246 449.156 358.238 407.524 420.429 397.004C420.429 397.004 466.488 384.254 537.671 387.049" stroke="#252B3B" stroke-linecap="round" stroke-linejoin="round" stroke-dasharray="2 4"/>
<path d="M517.081 463.121H534.531" stroke="#252B3B" stroke-linecap="round" stroke-linejoin="round"/>
<path d="M517.081 488.935H534.531" stroke="#252B3B" stroke-linecap="round" stroke-linejoin="round"/>
<path d="M149.65 488.244H514.987V463.812H149.65" fill="#F8F8F8"/>
<path d="M149.65 488.244H514.987V463.812H149.65" stroke="#252B3B" stroke-linecap="round" stroke-linejoin="round"/>
<path d="M175.046 533.257V410.341C175.046 410.039 175.107 409.741 175.226 409.464C175.345 409.187 175.519 408.937 175.737 408.729L185.284 399.737C185.714 399.335 186.285 399.119 186.873 399.137C187.462 399.154 188.019 399.404 188.424 399.831L196.799 408.739C197.179 409.154 197.391 409.695 197.395 410.257V533.257" fill="#252B3B"/>
<path d="M175.046 533.257V410.341C175.046 410.039 175.107 409.741 175.226 409.464C175.345 409.187 175.519 408.937 175.737 408.729L185.284 399.737C185.714 399.335 186.285 399.119 186.873 399.137C187.462 399.154 188.019 399.404 188.424 399.831L196.799 408.739C197.179 409.154 197.391 409.695 197.395 410.257V533.257" stroke="#252B3B" stroke-linecap="round" stroke-linejoin="round"/>
<path d="M172.334 534.304V410.341C172.334 410.038 172.396 409.739 172.517 409.461C172.638 409.184 172.814 408.934 173.036 408.728L182.583 399.736C182.795 399.536 183.045 399.38 183.317 399.276C183.59 399.172 183.881 399.123 184.173 399.132C184.464 399.141 184.751 399.207 185.017 399.327C185.283 399.447 185.523 399.618 185.723 399.831L194.098 408.739C194.482 409.151 194.695 409.693 194.694 410.257V534.304" fill="#F8F8F8"/>
<path d="M172.334 534.304V410.341C172.334 410.038 172.396 409.739 172.517 409.461C172.638 409.184 172.814 408.934 173.036 408.728L182.583 399.736C182.795 399.536 183.045 399.38 183.317 399.276C183.59 399.172 183.881 399.123 184.173 399.132C184.464 399.141 184.751 399.207 185.017 399.327C185.283 399.447 185.523 399.618 185.723 399.831L194.098 408.739C194.482 409.151 194.695 409.693 194.694 410.257V534.304" stroke="#252B3B" stroke-linecap="round" stroke-linejoin="round"/>
<path d="M255.545 533.257V410.341C255.545 410.039 255.606 409.741 255.725 409.464C255.844 409.187 256.018 408.937 256.236 408.728L265.793 399.736C266.005 399.536 266.255 399.38 266.528 399.276C266.801 399.172 267.091 399.123 267.383 399.132C267.675 399.141 267.962 399.207 268.228 399.327C268.494 399.447 268.734 399.618 268.934 399.831L277.308 408.739C277.692 409.151 277.906 409.693 277.905 410.257V533.257" fill="#252B3B"/>
<path d="M255.545 533.257V410.341C255.545 410.039 255.606 409.741 255.725 409.464C255.844 409.187 256.018 408.937 256.236 408.728L265.793 399.736C266.005 399.536 266.255 399.38 266.528 399.276C266.801 399.172 267.091 399.123 267.383 399.132C267.675 399.141 267.962 399.207 268.228 399.327C268.494 399.447 268.734 399.618 268.934 399.831L277.308 408.739C277.692 409.151 277.906 409.693 277.905 410.257V533.257" stroke="#252B3B" stroke-linecap="round" stroke-linejoin="round"/>
<path d="M253.284 534.304V410.341C253.284 410.038 253.346 409.739 253.467 409.462C253.587 409.184 253.764 408.935 253.986 408.729L263.532 399.737C263.962 399.335 264.534 399.119 265.122 399.137C265.71 399.154 266.268 399.404 266.673 399.831L275.047 408.739C275.435 409.15 275.652 409.693 275.655 410.257V534.304" fill="#F8F8F8"/>
<path d="M253.284 534.304V410.341C253.284 410.038 253.346 409.739 253.467 409.462C253.587 409.184 253.764 408.935 253.986 408.729L263.532 399.737C263.962 399.335 264.534 399.119 265.122 399.137C265.71 399.154 266.268 399.404 266.673 399.831L275.047 408.739C275.435 409.15 275.652 409.693 275.655 410.257V534.304" stroke="#252B3B" stroke-linecap="round" stroke-linejoin="round"/>
<path d="M336.496 533.257V410.341C336.495 410.038 336.557 409.739 336.678 409.462C336.799 409.184 336.975 408.935 337.197 408.729L346.744 399.737C347.174 399.335 347.745 399.119 348.333 399.137C348.922 399.154 349.479 399.404 349.884 399.831L358.259 408.739C358.646 409.15 358.863 409.693 358.866 410.257V534.304" fill="#252B3B"/>
<path d="M336.496 533.257V410.341C336.495 410.038 336.557 409.739 336.678 409.462C336.799 409.184 336.975 408.935 337.197 408.729L346.744 399.737C347.174 399.335 347.745 399.119 348.333 399.137C348.922 399.154 349.479 399.404 349.884 399.831L358.259 408.739C358.646 409.15 358.863 409.693 358.866 410.257V534.304" stroke="#252B3B" stroke-linecap="round" stroke-linejoin="round"/>
<path d="M334.245 534.304V410.341C334.245 410.039 334.307 409.741 334.425 409.464C334.544 409.187 334.718 408.937 334.936 408.728L344.493 399.736C344.706 399.536 344.955 399.38 345.228 399.276C345.501 399.172 345.791 399.123 346.083 399.132C346.375 399.141 346.662 399.207 346.928 399.327C347.194 399.447 347.434 399.618 347.634 399.831L356.008 408.739C356.393 409.151 356.606 409.693 356.605 410.257V534.304" fill="#F8F8F8"/>
<path d="M334.245 534.304V410.341C334.245 410.039 334.307 409.741 334.425 409.464C334.544 409.187 334.718 408.937 334.936 408.728L344.493 399.736C344.706 399.536 344.955 399.38 345.228 399.276C345.501 399.172 345.791 399.123 346.083 399.132C346.375 399.141 346.662 399.207 346.928 399.327C347.194 399.447 347.434 399.618 347.634 399.831L356.008 408.739C356.393 409.151 356.606 409.693 356.605 410.257V534.304" stroke="#252B3B" stroke-linecap="round" stroke-linejoin="round"/>
<path d="M417.456 533.257V410.341C417.456 410.039 417.517 409.741 417.636 409.464C417.755 409.187 417.928 408.937 418.146 408.729L427.693 399.737C428.123 399.335 428.695 399.119 429.283 399.137C429.871 399.154 430.429 399.404 430.834 399.831L439.208 408.739C439.588 409.154 439.801 409.695 439.805 410.257V533.257" fill="#252B3B"/>
<path d="M417.456 533.257V410.341C417.456 410.039 417.517 409.741 417.636 409.464C417.755 409.187 417.928 408.937 418.146 408.729L427.693 399.737C428.123 399.335 428.695 399.119 429.283 399.137C429.871 399.154 430.429 399.404 430.834 399.831L439.208 408.739C439.588 409.154 439.801 409.695 439.805 410.257V533.257" stroke="#252B3B" stroke-linecap="round" stroke-linejoin="round"/>
<path d="M415.194 534.304V410.341C415.194 410.038 415.256 409.739 415.377 409.461C415.498 409.184 415.674 408.934 415.896 408.728L425.443 399.736C425.655 399.536 425.905 399.38 426.177 399.276C426.45 399.172 426.741 399.123 427.032 399.132C427.324 399.141 427.611 399.207 427.877 399.327C428.143 399.447 428.383 399.618 428.583 399.831L436.958 408.739C437.342 409.151 437.555 409.693 437.554 410.257V534.304" fill="#F8F8F8"/>
<path d="M415.194 534.304V410.341C415.194 410.038 415.256 409.739 415.377 409.461C415.498 409.184 415.674 408.934 415.896 408.728L425.443 399.736C425.655 399.536 425.905 399.38 426.177 399.276C426.45 399.172 426.741 399.123 427.032 399.132C427.324 399.141 427.611 399.207 427.877 399.327C428.143 399.447 428.383 399.618 428.583 399.831L436.958 408.739C437.342 409.151 437.555 409.693 437.554 410.257V534.304" stroke="#252B3B" stroke-linecap="round" stroke-linejoin="round"/>
<path d="M498.405 533.257V410.341C498.405 410.039 498.467 409.741 498.586 409.464C498.704 409.187 498.878 408.937 499.096 408.728L508.654 399.736C508.866 399.536 509.115 399.38 509.388 399.276C509.661 399.172 509.952 399.123 510.243 399.132C510.535 399.141 510.822 399.207 511.088 399.327C511.354 399.447 511.594 399.618 511.794 399.831L520.168 408.739C520.553 409.151 520.766 409.693 520.765 410.257V533.257" fill="#252B3B"/>
<path d="M498.405 533.257V410.341C498.405 410.039 498.467 409.741 498.586 409.464C498.704 409.187 498.878 408.937 499.096 408.728L508.654 399.736C508.866 399.536 509.115 399.38 509.388 399.276C509.661 399.172 509.952 399.123 510.243 399.132C510.535 399.141 510.822 399.207 511.088 399.327C511.354 399.447 511.594 399.618 511.794 399.831L520.168 408.739C520.553 409.151 520.766 409.693 520.765 410.257V533.257" stroke="#252B3B" stroke-linecap="round" stroke-linejoin="round"/>
<path d="M496.144 534.304V410.341C496.144 410.038 496.206 409.739 496.327 409.462C496.447 409.184 496.624 408.935 496.845 408.729L506.392 399.737C506.822 399.335 507.394 399.119 507.982 399.137C508.57 399.154 509.128 399.404 509.533 399.831L517.907 408.739C518.294 409.15 518.511 409.693 518.514 410.257V534.304" fill="#F8F8F8"/>
<path d="M496.144 534.304V410.341C496.144 410.038 496.206 409.739 496.327 409.462C496.447 409.184 496.624 408.935 496.845 408.729L506.392 399.737C506.822 399.335 507.394 399.119 507.982 399.137C508.57 399.154 509.128 399.404 509.533 399.831L517.907 408.739C518.294 409.15 518.511 409.693 518.514 410.257V534.304" stroke="#252B3B" stroke-linecap="round" stroke-linejoin="round"/>
<path d="M185.713 399.83V408.791" stroke="#252B3B" stroke-linecap="round" stroke-linejoin="round"/>
<path d="M189.303 404.457V425.666" stroke="#252B3B" stroke-linecap="round" stroke-linejoin="round"/>
<path d="M257.691 406.195V433.025" stroke="#252B3B" stroke-linecap="round" stroke-linejoin="round"/>
<path d="M261.156 402.73V414.413" stroke="#252B3B" stroke-linecap="round" stroke-linejoin="round"/>
<path d="M344.493 399.736V426.105" stroke="#252B3B" stroke-linecap="round" stroke-linejoin="round"/>
<path d="M349.466 401.861V440.823" stroke="#252B3B" stroke-linecap="round" stroke-linejoin="round"/>
<path d="M419.151 406.195V435.621" stroke="#252B3B" stroke-linecap="round" stroke-linejoin="round"/>
<path d="M430.404 402.73V410.09" stroke="#252B3B" stroke-linecap="round" stroke-linejoin="round"/>
<path d="M503.556 402.291V417.878" stroke="#252B3B" stroke-linecap="round" stroke-linejoin="round"/>
<path d="M513.082 404.029V449.041" stroke="#252B3B" stroke-linecap="round" stroke-linejoin="round"/>
<path d="M495.768 469.82H486.242" stroke="#252B3B" stroke-linecap="round" stroke-linejoin="round"/>
<path d="M495.767 477.179H462.437" stroke="#252B3B" stroke-linecap="round" stroke-linejoin="round"/>
<path d="M371.532 477.179H356.385" stroke="#252B3B" stroke-linecap="round" stroke-linejoin="round"/>
<path d="M291.891 477.179H276.743" stroke="#252B3B" stroke-linecap="round" stroke-linejoin="round"/>
<path d="M171.989 473.285H156.842" stroke="#252B3B" stroke-linecap="round" stroke-linejoin="round"/>
<path d="M171.99 480.205H165.929" stroke="#252B3B" stroke-linecap="round" stroke-linejoin="round"/>
<path d="M363.744 473.285H356.385" stroke="#252B3B" stroke-linecap="round" stroke-linejoin="round"/>
<path d="M283.234 481.503H275.875" stroke="#252B3B" stroke-linecap="round" stroke-linejoin="round"/>
<path d="M252.499 481.503H245.14" stroke="#252B3B" stroke-linecap="round" stroke-linejoin="round"/>
<path d="M525.193 477.179H518.703" stroke="#252B3B" stroke-linecap="round" stroke-linejoin="round"/>
<path d="M533.851 477.179H529.957" stroke="#252B3B" stroke-linecap="round" stroke-linejoin="round"/>
<path d="M194.317 432.177C194.317 432.177 191.7 454.673 188.56 477.692C185.419 500.712 191.177 524.265 192.747 526.359" stroke="#252B3B" stroke-linecap="round" stroke-linejoin="round"/>
<path d="M183.965 477.713C184.467 473.222 184.886 470.385 184.886 470.385" stroke="#252B3B" stroke-linecap="round" stroke-linejoin="round"/>
<path d="M191.69 523.742C191.69 523.742 182.269 521.648 182.269 504.899C182.269 498.021 182.709 490.976 183.232 485.01" stroke="#252B3B" stroke-linecap="round" stroke-linejoin="round"/>
<path d="M270.734 405.484C270.734 405.484 272.828 407.054 269.164 424.85C265.5 442.645 266.024 468.816 270.734 483.471" stroke="#252B3B" stroke-linecap="round" stroke-linejoin="round"/>
<path d="M275.968 438.458C275.968 438.458 270.734 454.16 274.398 476.143" stroke="#252B3B" stroke-linecap="round" stroke-linejoin="round"/>
<path d="M335.637 448.392C335.637 448.392 338.254 463.57 340.871 479.262C343.488 494.954 341.395 516.947 339.301 522.694C337.207 528.441 335.114 533.162 335.114 533.162" stroke="#252B3B" stroke-linecap="round" stroke-linejoin="round"/>
<path d="M345.498 525.469C343.164 532.629 340.264 524.265 340.264 524.265" stroke="#252B3B" stroke-linecap="round" stroke-linejoin="round"/>
<path d="M345.404 471.956C345.404 471.956 350.334 497.404 347.55 516.56" stroke="#252B3B" stroke-linecap="round" stroke-linejoin="round"/>
<path d="M334.59 480.33C334.59 480.33 339.824 491.321 335.113 501.79" stroke="#252B3B" stroke-linecap="round" stroke-linejoin="round"/>
<path d="M432.258 481.88C432.958 485.079 433.878 488.227 435.011 491.301" stroke="#252B3B" stroke-linecap="round" stroke-linejoin="round"/>
<path d="M436.581 427.466C433.259 438.009 431.152 448.896 430.3 459.917C429.987 465.493 430.3 471.086 431.232 476.593" stroke="#252B3B" stroke-linecap="round" stroke-linejoin="round"/>
<path d="M426.636 475.599C426.636 475.599 431.346 493.395 433.963 499.676C436.58 505.956 435.534 521.125 432.393 528.452" stroke="#252B3B" stroke-linecap="round" stroke-linejoin="round"/>
<path d="M497.275 435.317C497.275 435.317 507.743 454.16 497.798 485.03" stroke="#252B3B" stroke-linecap="round" stroke-linejoin="round"/>
<path d="M506.895 467.496C506.958 473.379 506.434 480.833 504.079 487.113C499.369 499.675 497.275 503.862 497.275 503.862" stroke="#252B3B" stroke-linecap="round" stroke-linejoin="round"/>
<path d="M506.172 457.301C506.172 457.301 506.518 459.551 506.727 463.016" stroke="#252B3B" stroke-linecap="round" stroke-linejoin="round"/>
</svg>
