<svg width="28" height="28" viewBox="0 0 28 28" fill="none" xmlns="http://www.w3.org/2000/svg">
<path d="M7.54395 10.618V2.89746H20.7792V10.618" stroke="#FE5A81" stroke-width="2.20588" stroke-linecap="round" stroke-linejoin="round"/>
<path d="M7.54409 20.5441H5.33821C4.75317 20.5441 4.1921 20.3117 3.77841 19.8981C3.36473 19.4844 3.13232 18.9233 3.13232 18.3383V12.8236C3.13232 12.2385 3.36473 11.6774 3.77841 11.2638C4.1921 10.8501 4.75317 10.6177 5.33821 10.6177H22.9853C23.5703 10.6177 24.1314 10.8501 24.5451 11.2638C24.9587 11.6774 25.1911 12.2385 25.1911 12.8236V18.3383C25.1911 18.9233 24.9587 19.4844 24.5451 19.8981C24.1314 20.3117 23.5703 20.5441 22.9853 20.5441H20.7794" stroke="#FE5A81" stroke-width="2.20588" stroke-linecap="round" stroke-linejoin="round"/>
<path d="M20.7792 16.1328H7.54395V24.9563H20.7792V16.1328Z" stroke="#FE5A81" stroke-width="2.20588" stroke-linecap="round" stroke-linejoin="round"/>
</svg>
