<svg width="48" height="48" viewBox="0 0 48 48" fill="none" xmlns="http://www.w3.org/2000/svg">
<path d="M39.8905 24V43.5833H8.55713V24" stroke="#7DB8AA" stroke-width="2" stroke-linecap="round" stroke-linejoin="round"/>
<path d="M43.8068 14.2085H4.64014V24.0002H43.8068V14.2085Z" stroke="#7DB8AA" stroke-width="2" stroke-linecap="round" stroke-linejoin="round"/>
<path d="M24.2236 43.5835V14.2085" stroke="#7DB8AA" stroke-width="2" stroke-linecap="round" stroke-linejoin="round"/>
<path d="M24.2235 14.2087H15.411C14.1125 14.2087 12.8672 13.6928 11.9491 12.7747C11.0309 11.8566 10.5151 10.6113 10.5151 9.31282C10.5151 8.01437 11.0309 6.7691 11.9491 5.85095C12.8672 4.9328 14.1125 4.41699 15.411 4.41699C22.2651 4.41699 24.2235 14.2087 24.2235 14.2087Z" stroke="#7DB8AA" stroke-width="2" stroke-linecap="round" stroke-linejoin="round"/>
<path d="M24.2236 14.2087H33.0361C34.3346 14.2087 35.5799 13.6928 36.498 12.7747C37.4162 11.8566 37.932 10.6113 37.932 9.31282C37.932 8.01437 37.4162 6.7691 36.498 5.85095C35.5799 4.9328 34.3346 4.41699 33.0361 4.41699C26.182 4.41699 24.2236 14.2087 24.2236 14.2087Z" stroke="#7DB8AA" stroke-width="2" stroke-linecap="round" stroke-linejoin="round"/>
</svg>
