<?xml version="1.0" encoding="utf-8"?>
<!-- Generator: Adobe Illustrator 25.2.0, SVG Export Plug-In . SVG Version: 6.00 Build 0)  -->
<svg version="1.1" id="Layer_1" xmlns="http://www.w3.org/2000/svg" xmlns:xlink="http://www.w3.org/1999/xlink" x="0px" y="0px"
	 viewBox="0 0 521 521" style="enable-background:new 0 0 521 521;" xml:space="preserve">
<style type="text/css">
	.st0{display:none;}
	.st1{display:inline;}
	.st2{display:inline;fill:none;stroke:#231F20;stroke-width:0.3629;stroke-miterlimit:10;}
	.st3{display:inline;fill:none;stroke:#231F20;stroke-width:0.3668;stroke-miterlimit:10;}
	.st4{display:inline;fill:none;stroke:#231F20;stroke-width:0.3662;stroke-miterlimit:10;}
	.st5{display:inline;fill:none;stroke:#231F20;stroke-width:0.3664;stroke-miterlimit:10;}
	.st6{display:inline;fill:#FE5A81;}
	.st7{display:inline;fill:#7DB8AA;}
	.st8{display:inline;fill:none;stroke:#7DB8AA;stroke-miterlimit:10;}
	.st9{fill:#252B3B;}
	.st10{display:inline;fill:none;stroke:#252B3B;stroke-width:4.8097;stroke-miterlimit:10;}
	.st11{fill:#FE5A81;}
	.st12{display:none;fill:#FE5A81;}
</style>
<g class="st0">
	<path class="st1" d="M299,43.1v15.1h-2c-5.2,0-9.8,2.1-13.2,5.5c-3.3,3.3-5.4,7.9-5.5,13c0,0.1,0,0.2,0,0.2h0v0h-13.6V63.4
		c5,0,9.5-1.7,13.1-4.7c0.4-0.3,0.7-0.6,1.1-1c3.9-3.7,6.4-8.9,6.4-14.7H299z"/>
	<path class="st1" d="M299,58.2v18.5h20.1v0c0-10.2-8.1-18.5-18.1-18.5H299z"/>
	<path class="st1" d="M300.2,95.5V78.2l18.6,0v0c0,9.6-7.5,17.3-16.8,17.3H300.2z"/>
	<path class="st1" d="M298.7,99.8v19c-9.2-2.4-16.5-9.6-19.2-18.7c0-0.2-0.1-0.3-0.1-0.5c0,0.1,0.1,0.2,0.1,0.3h19.2L298.7,99.8
		L298.7,99.8z"/>
	<path class="st1" d="M298.6,77v23h-19.2c0-0.1-0.1-0.2-0.1-0.3c-0.7-2.4-1-4.9-1-7.5V77H298.6z"/>
</g>
<g class="st0">
	<path class="st2" d="M155.1,39.6v15.9H153c-5.4,0-10.4,2.2-13.9,5.8c-3.5,3.5-5.7,8.4-5.8,13.7c0,0.1,0,0.2,0,0.3h0v0H119V61.1
		c5.2,0,10.1-1.8,13.8-4.9c0.4-0.3,0.8-0.7,1.2-1c4.1-3.9,6.7-9.4,6.7-15.5H155.1z"/>
	<path class="st3" d="M155.1,55.5v19.9h21.2v0c0-11-8.6-19.9-19.1-19.9H155.1z"/>
	<path class="st2" d="M156.4,94.9V76.7l19.6,0v0c0,10.1-7.9,18.3-17.7,18.3H156.4z"/>
	<path class="st4" d="M155.1,99.5v20c-9.9-2.6-17.7-10.1-20.6-19.7c-0.1-0.2-0.1-0.3-0.1-0.5c0,0.1,0.1,0.2,0.1,0.3h20.6L155.1,99.5
		L155.1,99.5z"/>
	<path class="st5" d="M155.1,75.3v24.3h-20.6c0-0.1-0.1-0.2-0.1-0.3c-0.7-2.5-1.1-5.2-1.1-7.9V75.3H155.1z"/>
</g>
<g class="st0">
	<path class="st6" d="M226.8,37.4v15.9h-2.1c-5.4,0-10.4,2.2-13.9,5.8c-3.5,3.5-5.7,8.4-5.8,13.7c0,0.1,0,0.2,0,0.3h0v0h-14.3V58.8
		c5.2,0,10.1-1.8,13.8-4.9c0.4-0.3,0.8-0.7,1.2-1c4.1-3.9,6.7-9.4,6.7-15.5H226.8z"/>
	<path class="st7" d="M226.8,53.3v19.9h21.2v0c0-11-8.6-19.9-19.1-19.9H226.8z"/>
	<path class="st6" d="M228,92.7V74.4l19.6,0v0c0,10.1-7.9,18.3-17.7,18.3H228z"/>
	<path class="st6" d="M226.8,97.2v20c-9.9-2.6-17.7-10.1-20.6-19.7c-0.1-0.2-0.1-0.3-0.1-0.5c0,0.1,0.1,0.2,0.1,0.3h20.6L226.8,97.2
		L226.8,97.2z"/>
	<path class="st7" d="M226.8,73.1v24.3h-20.6c0-0.1-0.1-0.2-0.1-0.3c-0.7-2.5-1.1-5.2-1.1-7.9V73.1H226.8z"/>
</g>
<g class="st0">
	<path class="st8" d="M300.9,44.6v85.9h-11.5c-29.4,0-56.1,12-75.3,31.4c-19,19-30.9,45.3-31.1,74.3c-0.1,0.4-0.1,0.9-0.1,1.4h0.1
		v0.1h-77.3v-77.2c28.4,0,54.3-10,74.7-26.6c2.1-1.7,4.2-3.6,6.2-5.6c22.4-21.1,36.3-50.8,36.3-83.8H300.9z"/>
	<path class="st8" d="M300.9,130.5v107.7h114.6v0c0-59.5-46.3-107.7-103.5-107.7H300.9z"/>
	<path class="st8" d="M320.2,332.3l0-76h81v0c0,42-32.7,76-73.1,76L320.2,332.3z"/>
	<path class="st8" d="M300.8,368.1v108.3c-53.4-13.8-95.8-54.6-111.3-106.5c-0.3-0.9-0.5-1.8-0.7-2.6c0.1,0.6,0.4,1.1,0.5,1.6h111.3
		v-0.8H300.8z"/>
	<path class="st8" d="M300.8,237.7v131.2H189.4c-0.1-0.6-0.4-1.1-0.5-1.6c-3.9-13.5-6-27.9-6-42.7v-86.9H300.8z"/>
</g>
<g class="st0">
	<path class="st1" d="M270.3,109.8v52h-7c-17.8,0-33.9,7.2-45.6,19c-11.5,11.5-18.7,27.4-18.9,45c0,0.3,0,0.6,0,0.8h0v0.1H152V180
		c17.2,0,32.9-6,45.2-16.1c1.3-1,2.6-2.2,3.8-3.4c13.6-12.7,22-30.8,22-50.7H270.3z"/>
	<path class="st1" d="M270.3,161.8v63.9h69.4v0c0-35.3-28-63.9-62.6-63.9H270.3z"/>
	<path class="st1" d="M274.5,290.8v-59.7l64.1,0v0c0,33-25.9,59.7-57.9,59.7H274.5z"/>
	<path class="st1" d="M269.1,305.6v65.6c-31.7-8.4-56.9-33-66.2-64.5c-0.2-0.5-0.3-1.1-0.4-1.6c0.1,0.3,0.2,0.7,0.3,1h66.2v-0.5
		H269.1z"/>
	<path class="st1" d="M268.9,226.7v79.4h-66.2c-0.1-0.3-0.2-0.7-0.3-1c-2.3-8.2-3.6-16.9-3.6-25.8v-52.6H268.9z"/>
</g>
<image style="display:none;overflow:visible;" width="222" height="34" xlink:href="../../../../Downloads/color code.png"  transform="matrix(0.5515 0 0 0.5515 388.8493 10)">
</image>
<g class="st0">
	<g class="st1">
		<path class="st9" d="M291.2,90.9v66.9h-9c-22.9,0-43.6,9.3-58.6,24.4c-14.8,14.8-24,35.2-24.2,57.8c-0.1,0.3-0.1,0.7-0.1,1.1h0.1
			v0.1h-60.2v-60.1c22.1,0,42.3-7.7,58.1-20.7c1.6-1.3,3.3-2.8,4.8-4.3c17.4-16.4,28.2-39.6,28.2-65.2H291.2z"/>
		<path class="st9" d="M291.2,157.7v83.8h89.1v0c0-46.3-36-83.8-80.5-83.8H291.2z"/>
		<path class="st9" d="M306.3,314.7v-59.1l63,0v0c0,32.7-25.5,59.1-56.9,59.1H306.3z"/>
		<path class="st9" d="M291.2,342.6v84.3c-41.5-10.8-74.5-42.5-86.6-82.9c-0.2-0.7-0.4-1.4-0.6-2.1c0.1,0.4,0.3,0.8,0.4,1.3H291
			v-0.6H291.2z"/>
		<path class="st9" d="M291.2,241.1v102.1h-86.7c-0.1-0.4-0.3-0.8-0.4-1.3c-3-10.5-4.7-21.7-4.7-33.2v-67.6H291.2z"/>
	</g>
	<path class="st10" d="M326.3,464.3H194.7c-76.2,0-138-61.8-138-138V194.7c0-76.2,61.8-138,138-138h131.7c76.2,0,138,61.8,138,138
		v131.7C464.3,402.5,402.5,464.3,326.3,464.3z"/>
</g>
<g>
	<path class="st11" d="M79.1,168.3L79.1,168.3l0,32h12.9V219H79.1v68.1h0c-12,0-21.8-9.8-21.8-21.8V219H46.2v-18.8h11.2V190
		C57.4,178,67.1,168.3,79.1,168.3z"/>
	<path class="st11" d="M187.9,248.5l-60.3,2.2c-3,0.1-4.9,3.2-3.7,6c1.6,3.5,3.8,6.3,6.8,8.6c4.5,3.5,10.2,5.1,17,4.9
		c7.3-0.3,13.5-2.8,18.8-7.5c1.2-1.1,2.9-1.4,4.4-0.7l11.2,4.8c2.6,1.1,3.4,4.4,1.6,6.6c-3.6,4.4-7.8,7.9-12.6,10.4
		c-6.3,3.3-13.8,5.2-22.6,5.5c-13.6,0.5-24.9-3.4-33.7-11.7c-8.9-8.3-13.5-18.9-14-31.8c-0.5-13.2,3.4-24.4,11.6-33.4
		c8.2-9.1,18.8-13.8,31.6-14.3c13.7-0.5,24.9,3.5,33.8,11.9c8.9,8.4,13.6,19.8,14.1,34.2v0C192,246.5,190.2,248.4,187.9,248.5z
		 M162.9,232.2c3.4-0.1,5.3-4.1,3.2-6.8c-1.5-1.9-3.3-3.5-5.4-4.9c-4.3-2.9-9.3-4.2-14.9-4c-6.1,0.2-11.3,2.1-15.8,5.7
		c-1.4,1.1-2.8,2.7-4.1,4.7c-1.9,2.9,0.3,6.7,3.7,6.6L162.9,232.2z"/>
	<path class="st11" d="M286.7,248.5l-60.3,2.2c-3,0.1-4.9,3.2-3.7,6c1.6,3.5,3.8,6.3,6.8,8.6c4.5,3.5,10.2,5.1,17,4.9
		c7.3-0.3,13.5-2.8,18.8-7.5c1.2-1.1,2.9-1.4,4.4-0.7l11.2,4.8c2.6,1.1,3.4,4.4,1.6,6.6c-3.6,4.4-7.8,7.9-12.6,10.4
		c-6.3,3.3-13.8,5.2-22.6,5.5c-13.6,0.5-24.9-3.4-33.7-11.7c-8.9-8.3-13.5-18.9-14-31.8c-0.5-13.2,3.4-24.4,11.6-33.4
		c8.2-9.1,18.8-13.8,31.6-14.3c13.7-0.5,24.9,3.5,33.8,11.9c8.9,8.4,13.6,19.8,14.1,34.2v0C290.8,246.5,289,248.4,286.7,248.5z
		 M261.7,232.2c3.4-0.1,5.3-4.1,3.2-6.8c-1.5-1.9-3.3-3.5-5.4-4.9c-4.3-2.9-9.3-4.2-14.9-4c-6.1,0.2-11.3,2.1-15.8,5.7
		c-1.4,1.1-2.8,2.7-4.1,4.7c-1.9,2.9,0.3,6.7,3.7,6.6L261.7,232.2z"/>
	<path class="st11" d="M376,210.9c-7.9-8.6-17.6-12.8-28.9-12.8c-3.1,0-6.1,0.4-9,1.1c-9.9,1.3-18.3,6.9-23.7,11.5
		c-8.6,6.8-14.6,16.6-16.3,27.7c-0.1,0.4-0.1,0.9-0.1,1.3v60.6c0,5.1,2.1,9.8,5.5,13.2c3.4,3.4,8,5.4,13.2,5.4c1.6,0,3-1.3,3-3
		v-20.6c0-3.2,1.6-6,4-7.6c0.8-0.6,1.7-1,2.7-1.3c0.8-0.3,1.7-0.4,2.6-0.4c1.2,0,2.4,0.2,3.6,0.7c3.7,1.5,7.8,2.4,12,2.6h0.1
		c0.6,0,1.2,0,1.9,0c11.2,0,20.9-4.3,29.1-13c5.8-6.2,9.6-13.5,11.3-21.8c0.1-0.4,0.2-0.9,0.3-1.4c0.5-2.8,0.7-5.6,0.7-8.6
		c0-0.2,0-0.4,0-0.6C387.9,230.4,384,219.4,376,210.9z M360.2,261.2c-4.9,5.8-12.5,8.7-20.1,8.1c-5.8-0.5-10.6-2.9-14.6-7
		c-4.5-4.8-6.8-11-6.8-18.7c0-7.5,2.3-13.7,6.8-18.3c4.5-4.7,10.2-7,17.1-7c6.8,0,12.5,2.4,16.9,7.1c4.5,4.8,6.7,10.9,6.7,18.3
		C366.2,250.6,364.2,256.5,360.2,261.2z"/>
	<path class="st12" d="M408.9,164.5c3.8,0,7.1,1.4,9.8,4.2c2.7,2.8,4.1,6.1,4.1,10.1c0,3.9-1.4,7.2-4.1,9.9
		c-2.7,2.7-5.9,4.1-9.7,4.1c-3.9,0-7.2-1.4-9.9-4.2c-2.7-2.8-4.1-6.2-4.1-10.2c0-3.8,1.3-7.1,4-9.8
		C401.6,166,405.2,164.5,408.9,164.5z M419.8,200.3L419.8,200.3v65c0,12-9.8,21.8-21.8,21.8h0v-65C398,210,407.7,200.3,419.8,200.3z
		"/>
	<path class="st12" d="M464.3,168.7L464.3,168.7l0,32h12.9v18.8h-12.9v68.1h0c-12,0-21.8-9.8-21.8-21.8v-46.3h-11.2v-18.8h11.2
		v-10.2C442.5,178.4,452.3,168.7,464.3,168.7z"/>
	<g>
		<path d="M420.1,162.4h50.5l-39.9,91.6c-1.5,3.5,1,7.3,4.8,7.3h32.3v0c0,12.2-9.9,22.1-22.1,22.1h-51.9l40.3-92.3
			c1.2-2.8-0.8-6-3.9-6h-32.8v0C397.3,172.7,407.5,162.4,420.1,162.4z"/>
	</g>
</g>
</svg>
