<?xml version="1.0" encoding="utf-8"?>
<!-- Generator: Adobe Illustrator 25.2.0, SVG Export Plug-In . SVG Version: 6.00 Build 0)  -->
<svg version="1.1" id="Layer_1" xmlns="http://www.w3.org/2000/svg" xmlns:xlink="http://www.w3.org/1999/xlink" x="0px" y="0px"
	 viewBox="0 0 521 521" style="enable-background:new 0 0 521 521;" xml:space="preserve">
<style type="text/css">
	.st0{display:none;}
	.st1{display:inline;}
	.st2{display:inline;fill:none;stroke:#231F20;stroke-width:0.3629;stroke-miterlimit:10;}
	.st3{display:inline;fill:none;stroke:#231F20;stroke-width:0.3668;stroke-miterlimit:10;}
	.st4{display:inline;fill:none;stroke:#231F20;stroke-width:0.3662;stroke-miterlimit:10;}
	.st5{display:inline;fill:none;stroke:#231F20;stroke-width:0.3664;stroke-miterlimit:10;}
	.st6{display:inline;fill:#FE5A81;}
	.st7{display:inline;fill:#7DB8AA;}
	.st8{fill:none;stroke:#7DB8AA;stroke-miterlimit:10;}
	.st9{display:inline;fill:none;stroke:#231F20;stroke-width:1.0778;stroke-miterlimit:10;}
</style>
<g class="st0">
	<path class="st1" d="M299,43.1v15.1h-2c-5.2,0-9.8,2.1-13.2,5.5c-3.3,3.3-5.4,7.9-5.5,13c0,0.1,0,0.2,0,0.2h0v0h-13.6V63.4
		c5,0,9.5-1.7,13.1-4.7c0.4-0.3,0.7-0.6,1.1-1c3.9-3.7,6.4-8.9,6.4-14.7H299z"/>
	<path class="st1" d="M299,58.2v18.5h20.1v0c0-10.2-8.1-18.5-18.1-18.5H299z"/>
	<path class="st1" d="M300.2,95.5V78.2l18.6,0v0c0,9.6-7.5,17.3-16.8,17.3H300.2z"/>
	<path class="st1" d="M298.7,99.8v19c-9.2-2.4-16.5-9.6-19.2-18.7c0-0.2-0.1-0.3-0.1-0.5c0,0.1,0.1,0.2,0.1,0.3h19.2L298.7,99.8
		L298.7,99.8z"/>
	<path class="st1" d="M298.6,77v23h-19.2c0-0.1-0.1-0.2-0.1-0.3c-0.7-2.4-1-4.9-1-7.5V77H298.6z"/>
</g>
<g class="st0">
	<path class="st2" d="M155.1,39.6v15.9H153c-5.4,0-10.4,2.2-13.9,5.8c-3.5,3.5-5.7,8.4-5.8,13.7c0,0.1,0,0.2,0,0.3h0v0H119V61.1
		c5.2,0,10.1-1.8,13.8-4.9c0.4-0.3,0.8-0.7,1.2-1c4.1-3.9,6.7-9.4,6.7-15.5H155.1z"/>
	<path class="st3" d="M155.1,55.5v19.9h21.2v0c0-11-8.6-19.9-19.1-19.9H155.1z"/>
	<path class="st2" d="M156.4,94.9V76.7l19.6,0v0c0,10.1-7.9,18.3-17.7,18.3H156.4z"/>
	<path class="st4" d="M155.1,99.5v20c-9.9-2.6-17.7-10.1-20.6-19.7c-0.1-0.2-0.1-0.3-0.1-0.5c0,0.1,0.1,0.2,0.1,0.3h20.6L155.1,99.5
		L155.1,99.5z"/>
	<path class="st5" d="M155.1,75.3v24.3h-20.6c0-0.1-0.1-0.2-0.1-0.3c-0.7-2.5-1.1-5.2-1.1-7.9V75.3H155.1z"/>
</g>
<g class="st0">
	<path class="st6" d="M226.8,37.4v15.9h-2.1c-5.4,0-10.4,2.2-13.9,5.8c-3.5,3.5-5.7,8.4-5.8,13.7c0,0.1,0,0.2,0,0.3h0v0h-14.3V58.8
		c5.2,0,10.1-1.8,13.8-4.9c0.4-0.3,0.8-0.7,1.2-1c4.1-3.9,6.7-9.4,6.7-15.5H226.8z"/>
	<path class="st7" d="M226.8,53.3v19.9h21.2v0c0-11-8.6-19.9-19.1-19.9H226.8z"/>
	<path class="st6" d="M228,92.7V74.4l19.6,0v0c0,10.1-7.9,18.3-17.7,18.3H228z"/>
	<path class="st6" d="M226.8,97.2v20c-9.9-2.6-17.7-10.1-20.6-19.7c-0.1-0.2-0.1-0.3-0.1-0.5c0,0.1,0.1,0.2,0.1,0.3h20.6L226.8,97.2
		L226.8,97.2z"/>
	<path class="st7" d="M226.8,73.1v24.3h-20.6c0-0.1-0.1-0.2-0.1-0.3c-0.7-2.5-1.1-5.2-1.1-7.9V73.1H226.8z"/>
</g>
<g>
	<path class="st8" d="M300.9,44.6v85.9h-11.5c-29.4,0-56.1,12-75.3,31.4c-19,19-30.9,45.3-31.1,74.3c-0.1,0.4-0.1,0.9-0.1,1.4h0.1
		v0.1h-77.3v-77.2c28.4,0,54.3-10,74.7-26.6c2.1-1.7,4.2-3.6,6.2-5.6c22.4-21.1,36.3-50.8,36.3-83.8H300.9z"/>
	<path class="st8" d="M300.9,130.5v107.7h114.6v0c0-59.5-46.3-107.7-103.5-107.7H300.9z"/>
	<path class="st8" d="M320.2,332.3l0-76h81v0c0,42-32.7,76-73.1,76L320.2,332.3z"/>
	<path class="st8" d="M300.8,368.1v108.3c-53.4-13.8-95.8-54.6-111.3-106.5c-0.3-0.9-0.5-1.8-0.7-2.6c0.1,0.6,0.4,1.1,0.5,1.6h111.3
		v-0.8H300.8z"/>
	<path class="st8" d="M300.8,237.7v131.2H189.4c-0.1-0.6-0.4-1.1-0.5-1.6c-3.9-13.5-6-27.9-6-42.7v-86.9H300.8z"/>
</g>
<g class="st0">
	<g class="st1">
		<path d="M65,44.2v15.1h-2c-5.2,0-9.8,2.1-13.2,5.5c-3.3,3.3-5.4,7.9-5.5,13c0,0.1,0,0.2,0,0.2h0v0H30.8V64.5c5,0,9.5-1.7,13.1-4.7
			c0.4-0.3,0.7-0.6,1.1-1c3.9-3.7,6.4-8.9,6.4-14.7H65z"/>
		<path d="M65,59.3v18.5h20.1v0c0-10.2-8.1-18.5-18.1-18.5H65z"/>
		<path d="M66.2,96.7V79.3l18.6,0v0c0,9.6-7.5,17.3-16.8,17.3H66.2z"/>
		<path d="M64.7,100.9v19c-9.2-2.4-16.5-9.6-19.2-18.7c0-0.2-0.1-0.3-0.1-0.5c0,0.1,0.1,0.2,0.1,0.3h19.2L64.7,100.9L64.7,100.9z"/>
		<path d="M64.6,78.1v23H45.5c0-0.1-0.1-0.2-0.1-0.3c-0.7-2.4-1-4.9-1-7.5V78.1H64.6z"/>
	</g>
	<path class="st9" d="M72.7,127.8H43.2c-17.1,0-30.9-13.8-30.9-30.9V67.3c0-17.1,13.8-30.9,30.9-30.9h29.5
		c17.1,0,30.9,13.8,30.9,30.9v29.5C103.6,113.9,89.8,127.8,72.7,127.8z"/>
</g>
<image style="display:none;overflow:visible;" width="222" height="34" xlink:href="../../../../Downloads/color code.png"  transform="matrix(0.5515 0 0 0.5515 388.8493 10)">
</image>
<g class="st0">
	<path class="st6" d="M127.6,207.1L127.6,207.1l0,23.3h9.4V244h-9.4v49.5h0c-8.8,0-15.9-7.1-15.9-15.9V244h-8.1v-13.6h8.1v-7.4
		C111.8,214.2,118.9,207.1,127.6,207.1z"/>
	<path class="st6" d="M206.8,265.4l-43.9,1.6c-2.2,0.1-3.6,2.4-2.7,4.4c1.1,2.5,2.8,4.6,4.9,6.3c3.3,2.5,7.4,3.7,12.4,3.5
		c5.3-0.2,9.8-2,13.7-5.4c0.9-0.8,2.1-1,3.2-0.5l8.1,3.5c1.9,0.8,2.5,3.2,1.1,4.8c-2.6,3.2-5.7,5.8-9.2,7.6c-4.6,2.4-10,3.8-16.4,4
		c-9.9,0.4-18.1-2.5-24.5-8.5c-6.5-6-9.9-13.7-10.2-23.1c-0.4-9.6,2.5-17.7,8.4-24.3c6-6.6,13.6-10.1,23-10.4
		c9.9-0.4,18.1,2.5,24.6,8.7c6.5,6.1,9.9,14.4,10.3,24.9l0,0C209.8,264,208.5,265.4,206.8,265.4z M188.6,253.6c2.5-0.1,3.9-3,2.3-5
		c-1.1-1.4-2.4-2.5-3.9-3.6c-3.2-2.1-6.8-3.1-10.8-2.9c-4.4,0.2-8.2,1.5-11.5,4.1c-1,0.8-2,2-3,3.4c-1.4,2.1,0.2,4.9,2.7,4.8
		L188.6,253.6z"/>
	<path class="st6" d="M278.7,265.4l-43.9,1.6c-2.2,0.1-3.6,2.4-2.7,4.4c1.1,2.5,2.8,4.6,4.9,6.3c3.3,2.5,7.4,3.7,12.4,3.5
		c5.3-0.2,9.8-2,13.7-5.4c0.9-0.8,2.1-1,3.2-0.5l8.1,3.5c1.9,0.8,2.5,3.2,1.1,4.8c-2.6,3.2-5.7,5.8-9.2,7.6c-4.6,2.4-10,3.8-16.4,4
		c-9.9,0.4-18.1-2.5-24.5-8.5c-6.5-6-9.9-13.7-10.2-23.1c-0.4-9.6,2.5-17.7,8.4-24.3c6-6.6,13.6-10.1,23-10.4
		c9.9-0.4,18.1,2.5,24.6,8.7c6.5,6.1,9.9,14.4,10.3,24.9l0,0C281.7,264,280.4,265.4,278.7,265.4z M260.5,253.6c2.5-0.1,3.9-3,2.3-5
		c-1.1-1.4-2.4-2.5-3.9-3.6c-3.2-2.1-6.8-3.1-10.8-2.9c-4.4,0.2-8.2,1.5-11.5,4.1c-1,0.8-2,2-3,3.4c-1.4,2.1,0.2,4.9,2.7,4.8
		L260.5,253.6z"/>
	<path class="st6" d="M343.7,238.1c-5.8-6.2-12.8-9.3-21-9.3c-2.3,0-4.4,0.3-6.5,0.8c-7.2,0.9-13.3,5-17.2,8.4
		c-6.3,4.9-10.6,12-11.9,20.2c0,0.3-0.1,0.6-0.1,0.9v44.1c0,3.7,1.5,7.1,4,9.6c2.5,2.4,5.8,4,9.6,4c1.2,0,2.2-1,2.2-2.2v-15
		c0-2.4,1.2-4.4,2.9-5.5c0.6-0.4,1.3-0.7,2-0.9c0.6-0.2,1.2-0.3,1.9-0.3c0.9,0,1.7,0.2,2.6,0.5c2.7,1.1,5.6,1.8,8.7,1.9h0.1
		c0.4,0,0.9,0,1.4,0c8.2,0,15.2-3.2,21.2-9.5c4.2-4.5,7-9.8,8.2-15.9c0.1-0.3,0.1-0.7,0.2-1c0.3-2,0.5-4.1,0.5-6.3
		c0-0.1,0-0.3,0-0.5C352.3,252.3,349.5,244.3,343.7,238.1z M332.2,274.7c-3.6,4.2-9.1,6.4-14.6,5.9c-4.2-0.4-7.7-2.1-10.6-5.1
		c-3.3-3.5-4.9-8-4.9-13.6c0-5.5,1.6-9.9,4.9-13.3c3.3-3.4,7.4-5.1,12.4-5.1c5,0,9.1,1.7,12.3,5.2c3.3,3.5,4.9,7.9,4.9,13.3
		C336.6,267,335.1,271.3,332.2,274.7z"/>
	<path class="st6" d="M367.6,204.3c2.8,0,5.2,1,7.1,3c2,2,3,4.5,3,7.3c0,2.8-1,5.2-3,7.2c-2,2-4.3,3-7.1,3c-2.8,0-5.2-1-7.2-3
		c-2-2-3-4.5-3-7.4c0-2.8,1-5.1,2.9-7.1C362.3,205.4,364.9,204.3,367.6,204.3z M375.5,230.4L375.5,230.4v47.3
		c0,8.8-7.1,15.9-15.9,15.9l0,0v-47.3C359.7,237.5,366.8,230.4,375.5,230.4z"/>
	<path class="st6" d="M407.9,207.4L407.9,207.4v23.3h9.4v13.6h-9.4v49.5l0,0c-8.8,0-15.9-7.1-15.9-15.9v-33.7h-8.1v-13.6h8.1v-7.4
		C392.1,214.5,399.2,207.4,407.9,207.4z"/>
</g>
</svg>
