<?xml version="1.0" encoding="utf-8"?>
<!-- Generator: Adobe Illustrator 25.2.0, SVG Export Plug-In . SVG Version: 6.00 Build 0)  -->
<svg version="1.1" id="Layer_1" xmlns="http://www.w3.org/2000/svg" xmlns:xlink="http://www.w3.org/1999/xlink" x="0px" y="0px"
	 viewBox="0 0 521 521" style="enable-background:new 0 0 521 521;" xml:space="preserve">
<style type="text/css">
	.st0{display:none;}
	.st1{display:inline;}
	.st2{display:inline;fill:none;stroke:#231F20;stroke-width:0.3629;stroke-miterlimit:10;}
	.st3{display:inline;fill:none;stroke:#231F20;stroke-width:0.3668;stroke-miterlimit:10;}
	.st4{display:inline;fill:none;stroke:#231F20;stroke-width:0.3662;stroke-miterlimit:10;}
	.st5{display:inline;fill:none;stroke:#231F20;stroke-width:0.3664;stroke-miterlimit:10;}
	.st6{display:inline;fill:#FE5A81;}
	.st7{display:inline;fill:#7DB8AA;}
	.st8{fill:none;stroke:#7DB8AA;stroke-miterlimit:10;}
	.st9{display:inline;fill:none;stroke:#231F20;stroke-width:1.0778;stroke-miterlimit:10;}
	.st10{fill:#FE5A81;}
</style>
<g class="st0">
	<path class="st1" d="M299,43.1v15.1h-2c-5.2,0-9.8,2.1-13.2,5.5c-3.3,3.3-5.4,7.9-5.5,13c0,0.1,0,0.2,0,0.2h0v0h-13.6V63.4
		c5,0,9.5-1.7,13.1-4.7c0.4-0.3,0.7-0.6,1.1-1c3.9-3.7,6.4-8.9,6.4-14.7H299z"/>
	<path class="st1" d="M299,58.2v18.5h20.1v0c0-10.2-8.1-18.5-18.1-18.5H299z"/>
	<path class="st1" d="M300.2,95.5V78.2l18.6,0v0c0,9.6-7.5,17.3-16.8,17.3H300.2z"/>
	<path class="st1" d="M298.7,99.8v19c-9.2-2.4-16.5-9.6-19.2-18.7c0-0.2-0.1-0.3-0.1-0.5c0,0.1,0.1,0.2,0.1,0.3h19.2L298.7,99.8
		L298.7,99.8z"/>
	<path class="st1" d="M298.6,77v23h-19.2c0-0.1-0.1-0.2-0.1-0.3c-0.7-2.4-1-4.9-1-7.5V77H298.6z"/>
</g>
<g class="st0">
	<path class="st2" d="M155.1,39.6v15.9H153c-5.4,0-10.4,2.2-13.9,5.8c-3.5,3.5-5.7,8.4-5.8,13.7c0,0.1,0,0.2,0,0.3h0v0H119V61.1
		c5.2,0,10.1-1.8,13.8-4.9c0.4-0.3,0.8-0.7,1.2-1c4.1-3.9,6.7-9.4,6.7-15.5H155.1z"/>
	<path class="st3" d="M155.1,55.5v19.9h21.2v0c0-11-8.6-19.9-19.1-19.9H155.1z"/>
	<path class="st2" d="M156.4,94.9V76.7l19.6,0v0c0,10.1-7.9,18.3-17.7,18.3H156.4z"/>
	<path class="st4" d="M155.1,99.5v20c-9.9-2.6-17.7-10.1-20.6-19.7c-0.1-0.2-0.1-0.3-0.1-0.5c0,0.1,0.1,0.2,0.1,0.3h20.6L155.1,99.5
		L155.1,99.5z"/>
	<path class="st5" d="M155.1,75.3v24.3h-20.6c0-0.1-0.1-0.2-0.1-0.3c-0.7-2.5-1.1-5.2-1.1-7.9V75.3H155.1z"/>
</g>
<g class="st0">
	<path class="st6" d="M226.8,37.4v15.9h-2.1c-5.4,0-10.4,2.2-13.9,5.8c-3.5,3.5-5.7,8.4-5.8,13.7c0,0.1,0,0.2,0,0.3h0v0h-14.3V58.8
		c5.2,0,10.1-1.8,13.8-4.9c0.4-0.3,0.8-0.7,1.2-1c4.1-3.9,6.7-9.4,6.7-15.5H226.8z"/>
	<path class="st7" d="M226.8,53.3v19.9h21.2v0c0-11-8.6-19.9-19.1-19.9H226.8z"/>
	<path class="st6" d="M228,92.7V74.4l19.6,0v0c0,10.1-7.9,18.3-17.7,18.3H228z"/>
	<path class="st6" d="M226.8,97.2v20c-9.9-2.6-17.7-10.1-20.6-19.7c-0.1-0.2-0.1-0.3-0.1-0.5c0,0.1,0.1,0.2,0.1,0.3h20.6L226.8,97.2
		L226.8,97.2z"/>
	<path class="st7" d="M226.8,73.1v24.3h-20.6c0-0.1-0.1-0.2-0.1-0.3c-0.7-2.5-1.1-5.2-1.1-7.9V73.1H226.8z"/>
</g>
<g>
	<path class="st8" d="M300.9,44.6v85.9h-11.5c-29.4,0-56.1,12-75.3,31.4c-19,19-30.9,45.3-31.1,74.3c-0.1,0.4-0.1,0.9-0.1,1.4h0.1
		v0.1h-77.3v-77.2c28.4,0,54.3-10,74.7-26.6c2.1-1.7,4.2-3.6,6.2-5.6c22.4-21.1,36.3-50.8,36.3-83.8H300.9z"/>
	<path class="st8" d="M300.9,130.5v107.7h114.6v0c0-59.5-46.3-107.7-103.5-107.7H300.9z"/>
	<path class="st8" d="M320.2,332.3l0-76h81v0c0,42-32.7,76-73.1,76L320.2,332.3z"/>
	<path class="st8" d="M300.8,368.1v108.3c-53.4-13.8-95.8-54.6-111.3-106.5c-0.3-0.9-0.5-1.8-0.7-2.6c0.1,0.6,0.4,1.1,0.5,1.6h111.3
		v-0.8H300.8z"/>
	<path class="st8" d="M300.8,237.7v131.2H189.4c-0.1-0.6-0.4-1.1-0.5-1.6c-3.9-13.5-6-27.9-6-42.7v-86.9H300.8z"/>
</g>
<g class="st0">
	<g class="st1">
		<path d="M65,44.2v15.1h-2c-5.2,0-9.8,2.1-13.2,5.5c-3.3,3.3-5.4,7.9-5.5,13c0,0.1,0,0.2,0,0.2h0v0H30.8V64.5c5,0,9.5-1.7,13.1-4.7
			c0.4-0.3,0.7-0.6,1.1-1c3.9-3.7,6.4-8.9,6.4-14.7H65z"/>
		<path d="M65,59.3v18.5h20.1v0c0-10.2-8.1-18.5-18.1-18.5H65z"/>
		<path d="M66.2,96.7V79.3l18.6,0v0c0,9.6-7.5,17.3-16.8,17.3H66.2z"/>
		<path d="M64.7,100.9v19c-9.2-2.4-16.5-9.6-19.2-18.7c0-0.2-0.1-0.3-0.1-0.5c0,0.1,0.1,0.2,0.1,0.3h19.2L64.7,100.9L64.7,100.9z"/>
		<path d="M64.6,78.1v23H45.5c0-0.1-0.1-0.2-0.1-0.3c-0.7-2.4-1-4.9-1-7.5V78.1H64.6z"/>
	</g>
	<path class="st9" d="M72.7,127.8H43.2c-17.1,0-30.9-13.8-30.9-30.9V67.3c0-17.1,13.8-30.9,30.9-30.9h29.5
		c17.1,0,30.9,13.8,30.9,30.9v29.5C103.6,113.9,89.8,127.8,72.7,127.8z"/>
</g>
<image style="display:none;overflow:visible;" width="222" height="34" xlink:href="../../../../Downloads/color code.png"  transform="matrix(0.5515 0 0 0.5515 388.8493 10)">
</image>
<g>
	<path class="st10" d="M185.1,171.4L185.1,171.4v17.1h6.9v10h-6.9V235l0,0c-6.4,0-11.7-5.2-11.7-11.7v-24.8h-6v-10h6v-5.5
		C173.4,176.6,178.6,171.4,185.1,171.4z"/>
	<path class="st10" d="M243.3,214.4l-32.3,1.2c-1.6,0.1-2.6,1.7-2,3.2c0.8,1.8,2,3.4,3.6,4.6c2.4,1.9,5.5,2.7,9.1,2.6
		c3.9-0.1,7.2-1.5,10.1-4c0.6-0.6,1.6-0.7,2.4-0.4l6,2.6c1.4,0.6,1.8,2.4,0.8,3.6c-1.9,2.4-4.2,4.2-6.7,5.6
		c-3.4,1.8-7.4,2.8-12.1,2.9c-7.3,0.3-13.3-1.8-18.1-6.2c-4.8-4.4-7.3-10.1-7.5-17c-0.3-7.1,1.8-13.1,6.2-17.9
		c4.4-4.8,10-7.4,16.9-7.6c7.3-0.3,13.3,1.9,18.1,6.4c4.8,4.5,7.3,10.6,7.5,18.3l0,0C245.5,213.3,244.5,214.3,243.3,214.4z
		 M229.9,205.7c1.8-0.1,2.9-2.2,1.7-3.7c-0.8-1-1.8-1.9-2.9-2.6c-2.3-1.5-5-2.3-8-2.1c-3.3,0.1-6.1,1.1-8.5,3
		c-0.8,0.6-1.5,1.5-2.2,2.5c-1,1.5,0.1,3.6,2,3.5L229.9,205.7z"/>
	<path class="st10" d="M296.2,214.4l-32.3,1.2c-1.6,0.1-2.6,1.7-2,3.2c0.8,1.8,2,3.4,3.6,4.6c2.4,1.9,5.5,2.7,9.1,2.6
		c3.9-0.1,7.2-1.5,10.1-4c0.6-0.6,1.6-0.7,2.4-0.4l6,2.6c1.4,0.6,1.8,2.4,0.8,3.6c-1.9,2.4-4.2,4.2-6.7,5.6
		c-3.4,1.8-7.4,2.8-12.1,2.9c-7.3,0.3-13.3-1.8-18.1-6.2c-4.8-4.4-7.3-10.1-7.5-17c-0.3-7.1,1.8-13.1,6.2-17.9
		c4.4-4.8,10-7.4,16.9-7.6c7.3-0.3,13.3,1.9,18.1,6.4c4.8,4.5,7.3,10.6,7.5,18.3l0,0C298.4,213.3,297.4,214.3,296.2,214.4z
		 M282.8,205.7c1.8-0.1,2.9-2.2,1.7-3.7c-0.8-1-1.8-1.9-2.9-2.6c-2.3-1.5-5-2.3-8-2.1c-3.3,0.1-6.1,1.1-8.5,3
		c-0.8,0.6-1.5,1.5-2.2,2.5c-1,1.5,0.1,3.6,2,3.5L282.8,205.7z"/>
	<path class="st10" d="M344,194.2c-4.2-4.6-9.4-6.9-15.5-6.9c-1.7,0-3.3,0.2-4.8,0.6c-5.3,0.7-9.8,3.7-12.7,6.2
		c-4.6,3.6-7.8,8.9-8.8,14.8c0,0.2,0,0.5,0,0.7v32.4c0,2.8,1.1,5.2,2.9,7.1c1.8,1.8,4.3,2.9,7.1,2.9c0.9,0,1.6-0.7,1.6-1.6v-11
		c0-1.7,0.9-3.2,2.1-4.1c0.4-0.3,0.9-0.5,1.4-0.7c0.4-0.1,0.9-0.2,1.4-0.2c0.6,0,1.3,0.1,1.9,0.4c2,0.8,4.2,1.3,6.4,1.4h0
		c0.3,0,0.7,0,1,0c6,0,11.2-2.3,15.6-7c3.1-3.3,5.1-7.2,6-11.7c0-0.2,0.1-0.5,0.1-0.7c0.2-1.5,0.4-3,0.4-4.6c0-0.1,0-0.2,0-0.3
		C350.4,204.7,348.3,198.8,344,194.2z M335.5,221.2c-2.6,3.1-6.7,4.7-10.8,4.3c-3.1-0.3-5.7-1.5-7.8-3.8c-2.4-2.5-3.6-5.9-3.6-10
		c0-4,1.2-7.3,3.6-9.8c2.4-2.5,5.5-3.8,9.1-3.8c3.7,0,6.7,1.3,9.1,3.8c2.4,2.6,3.6,5.8,3.6,9.8C338.8,215.5,337.7,218.7,335.5,221.2
		z"/>
	<path class="st10" d="M361.6,169.4c2,0,3.8,0.7,5.3,2.2c1.5,1.5,2.2,3.3,2.2,5.4c0,2.1-0.7,3.9-2.2,5.3c-1.4,1.5-3.2,2.2-5.2,2.2
		c-2.1,0-3.8-0.7-5.3-2.2c-1.5-1.5-2.2-3.3-2.2-5.4c0-2,0.7-3.8,2.1-5.2C357.7,170.2,359.6,169.4,361.6,169.4z M367.4,188.5
		L367.4,188.5l0,34.8c0,6.4-5.2,11.7-11.7,11.7l0,0v-34.8C355.8,193.8,361,188.5,367.4,188.5z"/>
	<path class="st10" d="M391.3,171.6L391.3,171.6l0,17.1h6.9v10h-6.9v36.4h0c-6.4,0-11.7-5.2-11.7-11.7v-24.8h-6v-10h6v-5.5
		C379.6,176.9,384.8,171.6,391.3,171.6z"/>
</g>
</svg>
